<?xml version="1.0" encoding="utf-8"?>
<!-- Generator: Adobe Illustrator 18.1.1, SVG Export Plug-In . SVG Version: 6.00 Build 0)  -->
<svg version="1.1" id="Layer_1" xmlns="http://www.w3.org/2000/svg" xmlns:xlink="http://www.w3.org/1999/xlink" x="0px" y="0px"
	 viewBox="0 0 640.5 56.8" enable-background="new 0 0 640.5 56.8" xml:space="preserve">
<g enable-background="new    ">
	<path fill="#A09E9F" d="M45.5,43.6l-4,9.1c-3.8,1.5-7.7,2.3-12.1,2.3c-8.9,0-16-2.5-21.3-7.4S0,36.3,0,28.2C0,20.5,2.6,14.1,7.7,9
		c5.1-5.1,11.7-7.7,19.8-7.7c4,0,8.5,0.8,14,2.1v8.9C36.6,9.5,31.9,8,27.4,8c-5.5,0-9.8,1.7-13.4,5.3c-3.4,3.6-5.1,8.1-5.1,13.6
		c0,6,1.9,11.3,5.7,15.5c3.8,4.1,8.5,6.4,14,6.4C33.4,48.5,39,47,45.5,43.6z M102.6,53.6h-16c1.9-1.1,2.8-2.1,2.8-3
		c0-0.6-0.4-2.1-1.3-4.3l-4.5-11.9H64l-4.3,11.9c-0.6,1.5-0.9,2.8-0.9,4c0,1.3,0.9,2.5,2.8,3.4H47.3c1.7-1.1,3-2.3,4-3.6
		c0.8-1.1,1.9-3.6,3.4-7L68.5,9c0.6-1.5,0.9-2.6,0.9-3.6c0-1.1-0.8-2.3-2.3-3h12.4l16.4,40.7c1.1,3,2.3,5.3,3.4,6.8
		C99.6,51.3,100.9,52.6,102.6,53.6L102.6,53.6z M81.5,29.2L73.6,8.8l-7.9,20.4H81.5L81.5,29.2z M142.4,43.2l-4.1,10.4h-31.7
		c1.7-0.9,2.6-2.3,3.2-4.3c0.2-0.9,0.4-2.8,0.4-5.7V12.5c0-2.8-0.2-4.7-0.4-5.7c-0.4-2.1-1.5-3.4-3.2-4.3h14.7
		c-1.7,0.9-2.6,2.3-3.2,4.3c-0.2,0.9-0.4,2.8-0.4,5.7v34.9c3.6,0.6,7.2,0.8,10.4,0.8c2.8,0,5.3-0.4,7.2-0.9
		C137.5,46.4,139.8,45.1,142.4,43.2L142.4,43.2z M184.1,38.7c0,4-1.5,7.4-4.7,10.6c-4,3.8-9.4,5.7-16.2,5.7c-4.7,0-9.2-0.8-13.8-2.5
		l-2.3-9.6c5.3,4.1,10.9,6.2,17,6.2c3.2,0,6-0.8,8.3-2.3s3.4-3.4,3.4-5.7c0-2.1-0.9-4-2.6-5.5c-1.5-1.3-4.7-3-10-5.5
		c-5.1-2.3-8.7-4.3-10.8-6.2c-2.6-2.5-4-5.5-4-9.1c0-4.1,1.7-7.5,5.3-10c3.6-2.5,8.1-3.8,14.1-3.8c4,0,7.7,0.6,11.9,1.7v8.9
		c-3.4-3.4-7.5-5.1-12.3-5.1c-3,0-5.5,0.8-7.4,2.1s-2.8,3-2.8,5.3c0,1.9,0.8,3.6,2.3,4.9c1.5,1.3,4.5,3,9.2,5.3
		c5.5,2.6,9.2,4.7,11.3,6.2C182.8,32.5,184.1,35.3,184.1,38.7z"/>
</g>
<g enable-background="new    ">
	<path fill="#A09E9F" d="M213,22.3h-5.3c0.6-0.4,0.9-0.8,1.1-1.5c0-0.4,0.2-0.9,0.2-2.1V7.4c0-0.9,0-1.7-0.2-2.1
		c-0.2-0.8-0.6-1.3-1.1-1.5h5.3c-0.6,0.4-0.9,0.8-1.1,1.5c0,0.4-0.2,0.9-0.2,2.1v11.3c0,0.9,0,1.7,0.2,2.1
		C212,21.3,212.4,21.9,213,22.3z M229,22.3h-4.7c0.6-0.4,0.8-0.8,0.9-0.9c0.2-0.2,0.2-0.9,0.2-1.7v-4.5c0-1.3-0.2-2.3-0.6-2.8
		c-0.6-0.8-1.5-1.1-2.8-1.1c-0.6,0-1.1,0.2-1.7,0.4s-0.9,0.6-1.1,1.1c-0.2,0.2-0.2,0.8-0.2,1.3v5.7c0,0.9,0,1.5,0.2,1.7
		s0.4,0.6,0.9,0.9h-4.7c0.6-0.4,0.8-0.8,0.9-0.9c0.2-0.2,0.2-0.9,0.2-1.7v-7.5c0-0.9,0-1.5-0.2-1.7s-0.4-0.6-0.9-0.9h1.9
		c0.8,0,1.3-0.2,1.7-0.6v2.3c1.3-1.5,2.6-2.1,4.1-2.1c0.9,0,1.9,0.2,2.6,0.6c0.9,0.6,1.5,1.1,1.9,1.9c0.2,0.6,0.4,1.7,0.4,3.2v4.7
		c0,0.9,0,1.5,0.2,1.7C228.2,21.5,228.6,21.9,229,22.3L229,22.3z M240.3,3.4l-1.9,2.1c-0.4-0.4-0.9-0.4-1.5-0.4
		c-0.8,0-1.3,0.2-1.7,0.8C235,6.1,235,6.7,235,7.6v1.7h2.8c0.4,0,0.8,0,0.9-0.2v2.5c-0.2-0.4-0.8-0.4-1.5-0.4h-2.4v7.4
		c0,1.3,0.2,2.3,0.4,2.8c0.2,0.4,0.6,0.8,0.8,0.9h-4.7c0.6-0.4,0.8-0.8,0.9-0.9c0.2-0.2,0.2-0.9,0.2-1.7v-8.3h-1.3l1.3-1.9V8.2
		c0-1.5,0.6-2.6,1.5-3.4c0.9-0.9,2.5-1.3,4.5-1.3C239,3.2,239.5,3.4,240.3,3.4z M254.1,15.7c0,1.9-0.8,3.6-2.1,4.9
		c-1.5,1.3-3.2,2.1-5.3,2.1c-2.1,0-3.8-0.6-5.1-1.9s-2.1-2.8-2.1-4.9c0-2.3,0.9-4,2.6-5.3c1.3-0.9,3-1.5,4.9-1.5s3.6,0.6,4.9,1.9
		C253.3,12.1,254.1,13.8,254.1,15.7z M251.2,16c0-1.5-0.4-2.8-1.3-3.8c-0.8-0.9-1.9-1.5-3.4-1.5c-1.3,0-2.3,0.4-3,1.3
		c-0.8,0.9-1.1,2.1-1.1,3.4c0,1.5,0.4,2.8,1.3,3.8c0.9,0.9,1.9,1.5,3.2,1.5s2.3-0.4,3.2-1.3C251.1,18.5,251.2,17.6,251.2,16
		L251.2,16z M264.3,11.7c-0.4-0.4-0.8-0.4-1.3-0.4c-1.1,0-1.9,0.4-2.5,1.1c-0.4,0.6-0.6,1.3-0.6,2.5v4.5c0,0.9,0,1.5,0.2,1.7
		s0.4,0.6,0.9,0.9h-4.7c0.6-0.4,0.8-0.8,0.9-0.9c0.2-0.2,0.2-0.9,0.2-1.7V12c0-0.9,0-1.5-0.2-1.7s-0.4-0.6-0.9-0.9h1.9
		c0.8,0,1.3-0.2,1.7-0.6v2.3c0.8-1.5,1.9-2.1,3.4-2.1c0.2,0,0.6,0,0.9,0.2C264.3,9.3,264.3,11.7,264.3,11.7z M288.2,22.3h-4.9
		c0.6-0.4,0.8-0.8,0.9-0.9c0.2-0.2,0.2-0.9,0.2-1.7v-4.3c0-1.5-0.2-2.5-0.8-3c-0.6-0.8-1.3-1.1-2.5-1.1c-1.3,0-2.3,0.6-2.8,1.5
		c-0.2,0.4-0.4,1.1-0.4,2.1v4.7c0,0.9,0,1.5,0.2,1.7s0.4,0.6,0.9,0.9h-4.7c0.6-0.4,0.8-0.8,0.9-0.9c0.2-0.2,0.2-0.9,0.2-1.7v-4.5
		c0-1.3-0.4-2.3-0.9-2.8c-0.6-0.6-1.3-0.9-2.3-0.9c-1.3,0-2.3,0.6-2.8,1.5c-0.2,0.4-0.4,0.9-0.4,1.9v4.9c0,0.9,0,1.5,0.2,1.7
		s0.4,0.6,0.9,0.9h-4.7c0.6-0.4,0.8-0.8,0.9-0.9c0.2-0.2,0.2-0.9,0.2-1.7v-7.4c0-0.9,0-1.5-0.2-1.7s-0.4-0.6-0.9-0.9h1.9
		c0.8,0,1.1-0.2,1.5-0.6v2.3c1.1-1.5,2.5-2.3,4.1-2.3c1.9,0,3.2,0.8,4.3,2.5c0.8-0.9,1.3-1.5,2.1-1.9c0.6-0.4,1.5-0.6,2.5-0.6
		c0.9,0,1.9,0.2,2.6,0.6c0.9,0.4,1.5,1.1,1.9,1.9c0.2,0.6,0.4,1.5,0.4,3v4.9c0,0.8,0,1.3,0.2,1.7C287.3,21.7,287.6,22.1,288.2,22.3
		L288.2,22.3z M303.5,20.6l-1.3,1.9c-1.3,0-2.1-0.4-2.6-0.6c-0.6-0.4-0.8-0.8-0.9-1.3c0-0.4-0.2-0.9-0.2-1.7v-3.6
		c-0.6,0.4-1.9,0.6-3.6,1.1c-1.3,0.4-2.1,0.9-2.1,2.1c0,0.8,0.2,1.3,0.8,1.7c0.6,0.4,1.3,0.6,2.3,0.6c0.6,0,1.3-0.2,2.1-0.4
		l-1.7,2.1c-0.6,0.2-0.9,0.2-1.5,0.2c-1.3,0-2.5-0.4-3.4-1.1s-1.5-1.9-1.5-3c0-1.3,0.6-2.3,1.5-2.8c0.8-0.4,1.9-0.8,3.6-1.1
		c1.3-0.2,2.1-0.6,2.5-0.8s0.6-0.6,0.6-1.1s-0.2-0.9-0.8-1.3c-0.6-0.4-1.1-0.6-1.9-0.6c-0.9,0-2.3,0.4-3.8,1.1l1.9-2.8
		c0.6-0.2,1.3-0.2,1.9-0.2c2.3,0,4,0.6,4.7,1.9c0.4,0.6,0.6,1.7,0.6,3.4v5.1c0.2,0.4,0.4,0.8,0.8,1.1
		C302.2,20.6,302.7,20.6,303.5,20.6z M312.5,20.4l-1.5,2.1c-0.4,0.2-0.6,0.2-0.9,0.2c-1.1,0-2.1-0.4-2.8-1.1
		c-0.6-0.6-0.8-1.1-0.9-1.9v-8.3h-1.9v-1.1c0.9-0.2,1.7-0.6,2.3-1.1c0.8-0.8,0.9-1.9,0.9-3.4V5.4h1.1v4.1h2.1c0.8,0,1.3,0,1.7-0.2
		v2.5c-0.4-0.4-0.9-0.6-1.7-0.6h-2.1V17c0,1.3,0.2,2.3,0.6,2.6c0.6,0.6,1.1,0.9,2.1,0.9C311.8,20.8,312.2,20.6,312.5,20.4
		L312.5,20.4z M318.4,22.3h-4.7c0.6-0.4,0.8-0.8,0.9-0.9c0.2-0.2,0.2-0.9,0.2-1.7v-7.5c0-0.9,0-1.5-0.2-1.7s-0.4-0.6-0.9-0.9h1.9
		c0.8,0,1.3-0.2,1.7-0.6v10.6c0,0.9,0,1.5,0.2,1.7C317.6,21.5,318,21.9,318.4,22.3z M317.8,5.9c0,0.6-0.2,0.9-0.6,1.3
		s-0.8,0.6-1.3,0.6s-0.9-0.2-1.1-0.6c-0.4-0.4-0.6-0.8-0.6-1.3s0.2-0.9,0.6-1.1c0.4-0.4,0.8-0.6,1.3-0.6c0.4,0,0.9,0.2,1.1,0.6
		C317.6,5.1,317.8,5.5,317.8,5.9z M335.2,15.7c0,1.9-0.8,3.6-2.1,4.9c-1.5,1.3-3.2,2.1-5.3,2.1s-3.8-0.6-5.1-1.9s-2.1-2.8-2.1-4.9
		c0-2.3,0.9-4,2.6-5.3c1.3-0.9,3-1.5,4.9-1.5s3.6,0.6,4.9,1.9C334.4,12.1,335.2,13.8,335.2,15.7z M332.2,16c0-1.5-0.4-2.8-1.3-3.8
		c-0.8-0.9-1.9-1.5-3.4-1.5c-1.3,0-2.3,0.4-3,1.3c-0.8,0.9-1.1,2.1-1.1,3.4c0,1.5,0.4,2.8,1.3,3.8c0.9,0.9,1.9,1.5,3.2,1.5
		s2.3-0.4,3.2-1.3C332,18.5,332.2,17.6,332.2,16L332.2,16z M350.8,22.3h-4.7c0.6-0.4,0.8-0.8,0.9-0.9c0.2-0.2,0.2-0.9,0.2-1.7v-4.5
		c0-1.3-0.2-2.3-0.6-2.8c-0.6-0.8-1.5-1.1-2.8-1.1c-0.6,0-1.1,0.2-1.7,0.4s-0.9,0.6-1.1,1.1c-0.2,0.2-0.2,0.8-0.2,1.3v5.7
		c0,0.9,0,1.5,0.2,1.7s0.4,0.6,0.9,0.9h-4.7c0.6-0.4,0.8-0.8,0.9-0.9c0.2-0.2,0.2-0.9,0.2-1.7v-7.5c0-0.9,0-1.5-0.2-1.7
		s-0.4-0.6-0.9-0.9h1.9c0.8,0,1.3-0.2,1.7-0.6v2.3c1.3-1.5,2.6-2.1,4.1-2.1c0.9,0,1.9,0.2,2.6,0.6c0.9,0.6,1.5,1.1,1.9,1.9
		c0.2,0.6,0.4,1.7,0.4,3.2v4.7c0,0.9,0,1.5,0.2,1.7C350.1,21.5,350.3,21.9,350.8,22.3L350.8,22.3z M373.1,3.8l-0.9,3.4
		c-0.2-0.6-0.6-0.8-1.1-0.9c-0.4,0-0.8-0.2-1.5-0.2h-2.5v12.8c0,0.9,0.2,1.5,0.4,2.1c0.2,0.6,0.6,0.9,1.1,1.3h-5.5
		c0.6-0.4,0.9-0.8,1.1-1.5c0-0.4,0.2-0.9,0.2-2.1V6.1h-2.3c-0.8,0-1.5,0-1.9,0.2c-0.6,0.2-1.1,0.4-1.7,0.9l0.9-3.4
		c0.4,0.2,0.8,0.2,1.5,0.2h11.7C372.7,3.8,372.9,3.8,373.1,3.8L373.1,3.8z M385.5,19.3l-1.5,2.6c-1.1,0.4-2.5,0.8-3.8,0.8
		c-2.3,0-4.1-0.6-5.7-1.9s-2.3-2.8-2.3-4.9s0.8-3.8,2.3-5.1c1.1-1.1,2.6-1.7,4.7-1.7c1.9,0,3.4,0.6,4.5,1.7c1.1,1.1,1.9,2.6,1.9,4.3
		v0.4h-10.2c0,1.7,0.6,2.8,1.5,3.8c0.9,0.9,2.3,1.3,4,1.3C382.5,20.8,384,20.2,385.5,19.3z M382.5,13.8c-0.4-2.1-1.5-3.2-3.6-3.2
		s-3.2,1.1-3.6,3.2H382.5z M400.4,19.4l-1.7,2.6c-0.8,0.4-2.1,0.6-3.6,0.6c-2.3,0-4-0.6-5.5-1.9c-1.5-1.1-2.1-2.8-2.1-4.7
		c0-2.1,0.8-3.8,2.3-5.1s3.4-1.9,5.7-1.9c0.9,0,2.1,0.2,3,0.4v2.8c-0.9-0.9-2.1-1.3-3.4-1.3c-1.3,0-2.5,0.4-3.4,1.3
		c-0.8,0.8-1.3,1.9-1.3,3.4s0.6,2.8,1.7,3.8c1.1,0.9,2.5,1.5,4.1,1.5C397.6,20.8,398.9,20.4,400.4,19.4L400.4,19.4z M414.8,22.3
		h-4.5c0.6-0.4,0.8-0.8,0.9-0.9c0.2-0.2,0.2-0.9,0.2-1.7v-4.9c0-1.1-0.2-1.9-0.6-2.5c-0.6-0.8-1.5-1.1-2.6-1.1s-2.1,0.4-2.6,1.1
		c-0.2,0.2-0.4,0.6-0.4,0.8v6.6c0,0.9,0,1.5,0.2,1.7s0.4,0.6,0.9,0.9h-4.7c0.6-0.4,0.8-0.8,0.9-0.9c0.2-0.2,0.2-0.9,0.2-1.7V6.9
		c0-0.9,0-1.5-0.2-1.7s-0.4-0.6-0.9-0.9h1.9c0.8,0,1.3-0.2,1.7-0.6v7.4c0.9-1.1,2.3-1.7,4.1-1.7s3.2,0.6,4,1.9
		c0.4,0.6,0.8,1.5,0.8,2.8v5.8c0,0.9,0,1.5,0.2,1.7C414.4,21.7,414.4,21.9,414.8,22.3L414.8,22.3z M430.4,22.3h-4.7
		c0.6-0.4,0.8-0.8,0.9-0.9c0.2-0.2,0.2-0.9,0.2-1.7v-4.5c0-1.3-0.2-2.3-0.6-2.8c-0.6-0.8-1.5-1.1-2.8-1.1c-0.6,0-1.1,0.2-1.7,0.4
		c-0.6,0.2-0.9,0.6-1.1,1.1c-0.2,0.2-0.2,0.8-0.2,1.3v5.7c0,0.9,0,1.5,0.2,1.7s0.4,0.6,0.9,0.9h-4.7c0.6-0.4,0.8-0.8,0.9-0.9
		c0.2-0.2,0.2-0.9,0.2-1.7v-7.5c0-0.9,0-1.5-0.2-1.7s-0.4-0.6-0.9-0.9h1.9c0.8,0,1.3-0.2,1.7-0.6v2.3c1.3-1.5,2.6-2.1,4.1-2.1
		c0.9,0,1.9,0.2,2.6,0.6c0.9,0.6,1.5,1.1,1.9,1.9c0.2,0.6,0.4,1.7,0.4,3.2v4.7c0,0.9,0,1.5,0.2,1.7C429.7,21.5,430,21.9,430.4,22.3
		L430.4,22.3z M447,15.7c0,1.9-0.8,3.6-2.1,4.9c-1.5,1.3-3.2,2.1-5.3,2.1s-3.8-0.6-5.1-1.9c-1.3-1.3-2.1-2.8-2.1-4.9
		c0-2.3,0.9-4,2.6-5.3c1.3-0.9,3-1.5,4.9-1.5s3.6,0.6,4.9,1.9C446.5,12.1,447,13.8,447,15.7z M444.2,16c0-1.5-0.4-2.8-1.3-3.8
		c-0.8-0.9-1.9-1.5-3.4-1.5c-1.3,0-2.3,0.4-3,1.3c-0.8,0.9-1.1,2.1-1.1,3.4c0,1.5,0.4,2.8,1.3,3.8c0.9,0.9,1.9,1.5,3.2,1.5
		s2.3-0.4,3.2-1.3C444,18.5,444.2,17.6,444.2,16L444.2,16z M453.8,22.3h-4.7c0.6-0.4,0.8-0.8,0.9-0.9c0.2-0.2,0.2-0.9,0.2-1.7V6.9
		c0-0.9,0-1.5-0.2-1.7s-0.4-0.6-0.9-0.9h1.9c0.8,0,1.3-0.2,1.7-0.6v16.2c0,0.9,0,1.5,0.2,1.7C453.1,21.5,453.2,21.9,453.8,22.3z
		 M470.4,15.7c0,1.9-0.8,3.6-2.1,4.9c-1.5,1.3-3.2,2.1-5.3,2.1s-3.8-0.6-5.1-1.9c-1.3-1.3-2.1-2.8-2.1-4.9c0-2.3,0.9-4,2.6-5.3
		c1.3-0.9,3-1.5,4.9-1.5s3.6,0.6,4.9,1.9C469.7,12.1,470.4,13.8,470.4,15.7z M467.6,16c0-1.5-0.4-2.8-1.3-3.8
		c-0.8-0.9-1.9-1.5-3.4-1.5c-1.3,0-2.3,0.4-3,1.3c-0.8,0.9-1.1,2.1-1.1,3.4c0,1.5,0.4,2.8,1.3,3.8c0.9,0.9,1.9,1.5,3.2,1.5
		s2.3-0.4,3.2-1.3C467.4,18.5,467.6,17.6,467.6,16L467.6,16z M487.8,9.1L487,11c-0.2,0.2-0.4,0.4-0.8,0.4c-0.6,0-1.5-0.2-3-0.4
		c1.3,0.9,2.1,2.1,2.1,3.4c0,1.7-1.1,3-3.2,3.8c-0.8,0.2-1.7,0.4-2.8,0.6c-0.8,0.2-1.1,0.4-1.1,0.8c0,0.4,0.4,0.6,1.1,0.6
		c2.1,0,3.8,0.2,4.7,0.4c1.1,0.4,2.1,0.9,2.6,1.7c0.4,0.6,0.6,1.1,0.6,2.1c0,1.7-0.9,2.8-2.6,3.8c-1.5,0.8-3,1.1-4.9,1.1
		c-2.1,0-4-0.4-5.5-1.1c-1.5-0.8-2.3-1.7-2.3-2.8c0-0.8,0.2-1.3,0.8-1.7c0.4-0.4,1.1-0.6,1.9-0.6c0.6,0,0.9,0.2,1.5,0.4
		c-0.8,0.2-1.3,0.6-1.3,1.3c0,0.9,0.4,1.7,1.3,2.3c0.9,0.6,2.1,0.8,3.4,0.8c1.5,0,2.6-0.2,3.6-0.8c0.9-0.6,1.3-1.3,1.3-2.3
		c0-1.7-1.9-2.6-5.7-2.6h-1.9c-0.6,0-0.9-0.2-1.3-0.6c-0.4-0.4-0.6-0.9-0.6-1.5c0-0.2,0.2-0.6,0.4-0.8s0.9-0.4,1.9-0.8
		c-0.8-0.2-1.5-0.6-2.1-0.9c-0.9-0.9-1.5-2.1-1.5-3.4s0.6-2.5,1.7-3.4c1.1-0.9,2.5-1.3,4.1-1.3c0.4,0,1.1,0,2.5,0.2
		c0.9,0,1.9,0.2,2.6,0.2C485.3,9.3,486.4,9.3,487.8,9.1L487.8,9.1z M482.5,14c0-0.9-0.4-1.7-0.9-2.5c-0.8-0.6-1.5-0.9-2.5-0.9
		c-0.8,0-1.5,0.2-2.1,0.8s-0.8,1.1-0.8,1.9c0,0.9,0.4,1.9,1.1,2.5s1.5,1.1,2.5,1.1c0.8,0,1.5-0.2,2.1-0.8
		C482.5,15.5,482.5,14.9,482.5,14z M502.5,9.4l-6,14.1c-0.6,1.5-1.3,2.5-2.1,3.2c-0.9,0.8-2.3,1.1-3.8,1.1c-0.9,0-2.1-0.2-3.4-0.8
		l2.5-1.9c0.6,0.4,1.1,0.6,1.5,0.6c1.5,0,2.5-1.1,3.2-3.2l0.2-0.8c-0.6-0.6-1.1-1.3-1.5-2.1l-3.8-8.1c-0.4-0.8-0.8-1.3-0.9-1.7
		c-0.2-0.4-0.8-0.6-1.1-0.8l2.6-0.2h0.8c0.2,0,0.4,0.4,0.6,0.9l4.3,9.6l3-7.4c0.2-0.8,0.4-1.3,0.4-1.7c0-0.6-0.2-0.9-0.8-1.3h4.3
		V9.4z"/>
</g>
<g enable-background="new    ">
	<path fill="#A09E9F" d="M225.2,49.8h-5.8c0.8-0.4,0.9-0.8,0.9-1.1c0-0.2-0.2-0.8-0.6-1.5l-1.7-4.3h-7l-1.5,4.3
		c-0.2,0.6-0.4,1.1-0.4,1.5c0,0.6,0.4,0.9,0.9,1.3h-5.1c0.6-0.4,1.1-0.8,1.3-1.3c0.4-0.4,0.8-1.3,1.1-2.5l4.9-12.3
		c0.2-0.6,0.4-0.9,0.4-1.3s-0.2-0.8-0.8-1.1h4.5l5.8,14.5c0.4,1.1,0.8,1.9,1.1,2.5C224.1,49.1,224.6,49.4,225.2,49.8L225.2,49.8z
		 M217.7,41.1l-2.8-7.4l-2.8,7.4H217.7z M240.1,49.8h-3.6v-8.3c-0.2-0.6-0.4-1.1-0.8-1.7c-0.8-0.9-1.9-1.5-3.2-1.5
		c-1.1,0-2.3,0.4-3,1.3c-0.8,0.9-1.1,1.9-1.1,3.2c0,1.5,0.4,2.8,1.3,3.8c0.9,0.9,2.1,1.5,3.4,1.5c0.8,0,1.7-0.2,2.5-0.8l-1.7,2.5
		c-0.4,0.2-0.9,0.2-1.3,0.2c-1.7,0-3-0.4-4.1-1.1c-1.9-1.3-3-3.2-3-5.7c0-1.9,0.6-3.6,1.9-4.9s2.8-1.9,4.7-1.9c1.5,0,3,0.6,4.3,1.7
		v-4c0-0.9,0-1.5-0.2-1.7s-0.4-0.6-0.9-0.9h1.9c0.8,0,1.3-0.2,1.7-0.6v16.2c0,0.9,0,1.5,0.2,1.7C239.4,49.1,239.5,49.4,240.1,49.8
		L240.1,49.8z M264.4,49.8h-4.9c0.6-0.4,0.8-0.8,0.9-0.9s0.2-0.9,0.2-1.7v-4.3c0-1.5-0.2-2.5-0.8-3c-0.6-0.8-1.3-1.1-2.5-1.1
		c-1.3,0-2.3,0.6-2.8,1.5c-0.2,0.4-0.4,1.1-0.4,2.1v4.7c0,0.9,0,1.5,0.2,1.7s0.4,0.6,0.9,0.9h-4.7c0.6-0.4,0.8-0.8,0.9-0.9
		c0.2-0.2,0.2-0.9,0.2-1.7v-4.5c0-1.3-0.4-2.3-0.9-2.8s-1.3-0.9-2.3-0.9c-1.3,0-2.3,0.6-2.8,1.5c-0.2,0.4-0.4,0.9-0.4,1.9v4.9
		c0,0.9,0,1.5,0.2,1.7s0.4,0.6,0.9,0.9h-4.5c0.6-0.4,0.8-0.8,0.9-0.9c0.2-0.2,0.2-0.9,0.2-1.7v-7.6c0-0.9,0-1.5-0.2-1.7
		s-0.4-0.6-0.9-0.9h1.9c0.8,0,1.1-0.2,1.5-0.6v2.3c1.1-1.5,2.5-2.3,4.1-2.3c1.9,0,3.2,0.8,4.3,2.5c0.8-0.9,1.3-1.5,2.1-1.9
		c0.8-0.4,1.5-0.6,2.5-0.6s1.9,0.2,2.6,0.6c0.9,0.4,1.5,1.1,1.9,1.9c0.2,0.6,0.4,1.5,0.4,3v4.9c0,0.8,0,1.3,0.2,1.7
		C263.5,49.2,263.9,49.6,264.4,49.8L264.4,49.8z M271.2,49.8h-4.7c0.6-0.4,0.8-0.8,0.9-0.9s0.2-0.9,0.2-1.7v-7.4
		c0-0.9,0-1.5-0.2-1.7s-0.4-0.6-0.9-0.9h1.9c0.8,0,1.3-0.2,1.7-0.6v10.6c0,0.9,0,1.5,0.2,1.7C270.5,49.1,270.7,49.4,271.2,49.8z
		 M270.7,33.6c0,0.6-0.2,0.9-0.6,1.3c-0.4,0.4-0.8,0.6-1.3,0.6s-0.9-0.2-1.1-0.6c-0.4-0.4-0.6-0.8-0.6-1.3c0-0.6,0.2-0.9,0.6-1.1
		c0.4-0.4,0.8-0.6,1.3-0.6c0.4,0,0.9,0.2,1.1,0.6C270.5,32.6,270.7,33,270.7,33.6z M286.9,49.8h-4.7c0.6-0.4,0.8-0.8,0.9-0.9
		s0.2-0.9,0.2-1.7v-4.6c0-1.3-0.2-2.3-0.6-2.8c-0.6-0.8-1.5-1.1-2.8-1.1c-0.6,0-1.1,0.2-1.7,0.4s-0.9,0.6-1.1,1.1
		c-0.2,0.2-0.2,0.8-0.2,1.3v5.7c0,0.9,0,1.5,0.2,1.7s0.4,0.6,0.9,0.9h-4.7c0.6-0.4,0.8-0.8,0.9-0.9s0.2-0.9,0.2-1.7v-7.4
		c0-0.9,0-1.5-0.2-1.7s-0.4-0.6-0.9-0.9h1.9c0.8,0,1.3-0.2,1.7-0.6v2.3c1.3-1.5,2.6-2.1,4.1-2.1c0.9,0,1.9,0.2,2.6,0.6
		c0.9,0.6,1.5,1.1,1.9,1.9c0.2,0.6,0.4,1.7,0.4,3.2v4.7c0,0.9,0,1.5,0.2,1.7C286.1,49.1,286.5,49.4,286.9,49.8L286.9,49.8z
		 M293.7,49.8H289c0.6-0.4,0.8-0.8,0.9-0.9s0.2-0.9,0.2-1.7v-7.4c0-0.9,0-1.5-0.2-1.7s-0.4-0.6-0.9-0.9h1.9c0.8,0,1.3-0.2,1.7-0.6
		v10.6c0,0.9,0,1.5,0.2,1.7C292.9,49.1,293.1,49.4,293.7,49.8z M293.1,33.6c0,0.6-0.2,0.9-0.6,1.3c-0.4,0.4-0.8,0.6-1.3,0.6
		s-0.9-0.2-1.1-0.6c-0.4-0.4-0.6-0.8-0.6-1.3c0-0.6,0.2-0.9,0.6-1.1c0.4-0.4,0.8-0.6,1.3-0.6c0.4,0,0.9,0.2,1.1,0.6
		C292.9,32.6,293.1,33,293.1,33.6z M306.3,45.8c0,1.3-0.6,2.5-1.7,3.2c-1.1,0.8-2.6,1.1-4.5,1.1c-1.3,0-2.5-0.2-3.8-0.8l-0.9-2.8
		c1.9,1.1,3.6,1.7,5.3,1.7c0.9,0,1.5-0.2,2.1-0.6c0.6-0.4,0.9-0.8,0.9-1.3s-0.2-0.9-0.6-1.3c-0.4-0.2-1.1-0.6-2.6-1.1
		c-1.5-0.6-2.6-1.1-3.2-1.7s-0.9-1.3-0.9-2.1c0-1.1,0.6-2.1,1.5-2.8c0.9-0.6,2.3-0.9,4-0.9c1.1,0,2.3,0.2,3.2,0.4v2.5
		c-1.1-0.8-2.3-1.1-3.4-1.1c-0.8,0-1.3,0.2-1.9,0.4c-0.6,0.4-0.8,0.8-0.8,1.1c0,0.4,0.2,0.8,0.6,0.9c0.4,0.4,1.1,0.6,2.3,0.9
		c1.7,0.6,2.8,1.1,3.4,1.7C305.9,44.1,306.3,44.9,306.3,45.8L306.3,45.8z M315.7,48.1l-1.5,2.1c-0.4,0.2-0.6,0.2-0.9,0.2
		c-1.1,0-2.1-0.4-2.8-1.1c-0.6-0.6-0.8-1.1-0.9-1.9v-8.3h-1.9v-0.9c0.9-0.2,1.7-0.6,2.3-1.1c0.8-0.8,0.9-1.9,0.9-3.4v-0.8h1.1V37
		h2.1c0.8,0,1.3,0,1.7-0.2v2.5c-0.4-0.4-0.9-0.6-1.7-0.6H312v5.8c0,1.3,0.2,2.3,0.6,2.6c0.6,0.6,1.1,0.9,2.1,0.9
		C314.8,48.3,315.4,48.1,315.7,48.1L315.7,48.1z M325,39.2c-0.4-0.4-0.8-0.4-1.3-0.4c-1.1,0-1.9,0.4-2.5,1.1
		c-0.4,0.6-0.6,1.3-0.6,2.5v4.5c0,0.9,0,1.5,0.2,1.7s0.4,0.6,0.9,0.9H317c0.6-0.4,0.8-0.8,0.9-0.9c0.2-0.2,0.2-0.9,0.2-1.7v-7.3
		c0-0.9,0-1.5-0.2-1.7s-0.4-0.6-0.9-0.9h1.9c0.8,0,1.3-0.2,1.7-0.6v2.3c0.8-1.5,1.9-2.1,3.4-2.1c0.2,0,0.6,0,0.9,0.2
		C325,36.8,325,39.2,325,39.2z M338.8,48.1l-1.3,1.9c-1.3,0-2.1-0.4-2.6-0.6c-0.6-0.4-0.8-0.8-0.9-1.3c0-0.4-0.2-0.9-0.2-1.7v-3.6
		c-0.6,0.4-1.9,0.6-3.6,1.1c-1.3,0.4-2.1,0.9-2.1,2.1c0,0.8,0.2,1.3,0.8,1.7c0.6,0.4,1.3,0.6,2.3,0.6c0.6,0,1.3-0.2,2.1-0.4
		l-1.7,2.1c-0.6,0.2-0.9,0.2-1.5,0.2c-1.3,0-2.5-0.4-3.4-1.1s-1.5-1.9-1.5-3c0-1.3,0.6-2.3,1.5-2.8c0.8-0.4,1.9-0.8,3.6-1.1
		c1.3-0.2,2.1-0.6,2.5-0.8s0.6-0.6,0.6-1.1c0-0.6-0.2-0.9-0.8-1.3c-0.6-0.4-1.1-0.6-1.9-0.6c-0.9,0-2.3,0.4-3.8,1.1l1.9-2.8
		c0.6-0.2,1.3-0.2,1.9-0.2c2.5,0,4,0.6,4.7,1.9c0.4,0.6,0.6,1.7,0.6,3.4v5.1c0.2,0.4,0.4,0.8,0.8,1.1
		C337.6,48.1,338.2,48.1,338.8,48.1L338.8,48.1z M347.8,48.1l-1.5,2.1c-0.4,0.2-0.6,0.2-0.9,0.2c-1.1,0-2.1-0.4-2.8-1.1
		c-0.6-0.6-0.8-1.1-0.9-1.9v-8.3h-1.9v-0.9c0.9-0.2,1.7-0.6,2.3-1.1c0.8-0.8,0.9-1.9,0.9-3.4v-0.8h1.1V37h2.1c0.8,0,1.3,0,1.7-0.2
		v2.5c-0.4-0.4-0.9-0.6-1.7-0.6h-2.1v5.8c0,1.3,0.2,2.3,0.6,2.6c0.6,0.6,1.1,0.9,2.1,0.9C347.1,48.3,347.4,48.1,347.8,48.1
		L347.8,48.1z M353.8,49.8h-4.7c0.6-0.4,0.8-0.8,0.9-0.9s0.2-0.9,0.2-1.7v-7.4c0-0.9,0-1.5-0.2-1.7s-0.4-0.6-0.9-0.9h1.9
		c0.8,0,1.3-0.2,1.7-0.6v10.6c0,0.9,0,1.5,0.2,1.7C353.1,49.1,353.3,49.4,353.8,49.8z M353.1,33.6c0,0.6-0.2,0.9-0.6,1.3
		c-0.4,0.4-0.8,0.6-1.3,0.6s-0.9-0.2-1.1-0.6c-0.4-0.4-0.6-0.8-0.6-1.3c0-0.6,0.2-0.9,0.6-1.1c0.4-0.4,0.8-0.6,1.3-0.6
		c0.4,0,0.9,0.2,1.1,0.6C353.1,32.6,353.1,33,353.1,33.6z M369.9,37l-6.4,14c-1.1-0.6-1.7-1.1-2.1-1.5s-0.8-1.1-1.1-1.9l-3.2-7.5
		c-0.4-0.9-0.8-1.5-0.9-1.9c-0.2-0.4-0.8-0.6-1.5-1.1h1.9c0.9,0,1.5-0.2,2.1-0.6c0,0.4,0.2,0.8,0.4,1.3l4.1,9.6l3.4-7.4
		c0.4-0.8,0.6-1.3,0.6-1.7c0-0.6-0.4-0.9-0.9-1.3L369.9,37L369.9,37z M383.6,46.8l-1.5,2.6c-1.1,0.4-2.5,0.8-3.8,0.8
		c-2.3,0-4.1-0.6-5.7-1.9s-2.3-2.8-2.3-4.9s0.8-3.8,2.3-5.1c1.1-1.1,2.6-1.7,4.7-1.7c1.9,0,3.4,0.6,4.5,1.7c1.1,1.1,1.9,2.6,1.9,4.3
		V43h-10.2c0,1.7,0.6,2.8,1.5,3.8c0.9,0.9,2.3,1.3,4,1.3C380.6,48.3,382.1,47.9,383.6,46.8z M380.6,41.3c-0.4-2.1-1.5-3.2-3.6-3.2
		s-3.2,1.1-3.6,3.2H380.6z M408.9,46.2l-1.3,3.2c-1.3,0.6-2.8,0.8-4.3,0.8c-3.2,0-5.7-0.9-7.7-2.6c-1.9-1.7-2.8-4.1-2.8-7
		c0-2.8,0.9-5.1,2.8-7c1.9-1.9,4.1-2.8,7.2-2.8c1.3,0,3,0.2,5.1,0.8v3.2c-1.7-0.9-3.4-1.5-5.1-1.5c-1.9,0-3.6,0.6-4.7,1.9
		c-1.3,1.3-1.9,2.8-1.9,4.9c0,2.3,0.8,4,2.1,5.5s2.6,2.5,4.5,2.5S406.7,47.4,408.9,46.2z M424.8,43.2c0,1.9-0.8,3.6-2.1,4.9
		c-1.5,1.3-3.2,2.1-5.3,2.1s-3.8-0.6-5.1-1.9c-1.3-1.3-2.1-2.8-2.1-4.9c0-2.3,0.9-4,2.6-5.3c1.3-0.9,3-1.5,4.9-1.5s3.6,0.6,4.9,1.9
		C424.2,39.6,424.8,41.3,424.8,43.2z M421.9,43.8c0-1.5-0.4-2.8-1.3-3.8c-0.8-0.9-1.9-1.5-3.4-1.5c-1.3,0-2.3,0.4-3,1.3
		c-0.8,0.9-1.1,2.1-1.1,3.4c0,1.5,0.4,2.8,1.3,3.8c0.9,0.9,1.9,1.5,3.2,1.5s2.3-0.4,3.2-1.3C421.7,46.2,421.9,45.1,421.9,43.8
		L421.9,43.8z M449.3,49.8h-4.9c0.6-0.4,0.8-0.8,0.9-0.9c0.2-0.2,0.2-0.9,0.2-1.7v-4.3c0-1.5-0.2-2.5-0.8-3
		c-0.6-0.8-1.3-1.1-2.5-1.1c-1.3,0-2.3,0.6-2.8,1.5c-0.2,0.4-0.4,1.1-0.4,2.1v4.7c0,0.9,0,1.5,0.2,1.7s0.4,0.6,0.9,0.9h-4.7
		c0.6-0.4,0.8-0.8,0.9-0.9c0.2-0.2,0.2-0.9,0.2-1.7v-4.5c0-1.3-0.4-2.3-0.9-2.8c-0.6-0.6-1.3-0.9-2.3-0.9c-1.3,0-2.3,0.6-2.8,1.5
		c-0.2,0.4-0.4,0.9-0.4,1.9v4.9c0,0.9,0,1.5,0.2,1.7s0.4,0.6,0.9,0.9h-4.7c0.6-0.4,0.8-0.8,0.9-0.9c0.2-0.2,0.2-0.9,0.2-1.7v-7.6
		c0-0.9,0-1.5-0.2-1.7s-0.4-0.6-0.9-0.9h1.9c0.8,0,1.1-0.2,1.5-0.6v2.3c1.1-1.5,2.5-2.3,4.1-2.3c1.9,0,3.2,0.8,4.3,2.5
		c0.8-0.9,1.3-1.5,2.1-1.9s1.5-0.6,2.5-0.6c0.9,0,1.9,0.2,2.6,0.6c0.9,0.4,1.5,1.1,1.9,1.9c0.2,0.6,0.4,1.5,0.4,3v4.9
		c0,0.8,0,1.3,0.2,1.7C448.3,49.2,448.7,49.6,449.3,49.8L449.3,49.8z M465.7,43.2c0,2.1-0.6,3.6-1.9,5.1c-1.3,1.3-2.8,2.1-4.7,2.1
		c-0.8,0-1.5-0.2-2.1-0.4l-1.5-2.3c1.1,0.6,2.1,0.8,3.2,0.8c1.3,0,2.5-0.4,3.2-1.3c0.8-0.9,1.1-2.1,1.1-3.6s-0.4-2.6-1.1-3.6
		c-0.8-0.9-1.9-1.3-3-1.3c-1.3,0-2.5,0.6-3.2,1.5c-0.4,0.6-0.8,1.5-0.8,2.6v10.4c0,0.8,0,1.3,0.2,1.5c0.2,0.6,0.4,0.9,0.9,1.1h-4.7
		c0.6-0.4,0.8-0.8,0.9-1.1c0-0.2,0.2-0.8,0.2-1.5V40c0-0.9,0-1.5-0.2-1.7s-0.4-0.6-0.9-0.9h1.9c0.8,0,1.3-0.2,1.7-0.6v2.1
		c1.1-1.3,2.6-2.1,4.5-2.1s3.4,0.6,4.7,1.9C465.1,39.6,465.7,41.3,465.7,43.2z M481.4,49.8H478v-1.9c-0.8,0.8-1.3,1.5-1.9,1.7
		c-0.6,0.2-1.3,0.4-2.3,0.4c-1.9,0-3.4-0.6-4.1-1.9c-0.6-0.8-0.8-1.9-0.8-3.6v-4.9c0-0.9,0-1.5-0.2-1.7s-0.4-0.6-0.9-0.9h1.9
		c0.8,0,1.3-0.2,1.7-0.6v7.7c0,1.3,0.2,2.3,0.8,2.8c0.6,0.8,1.3,1.1,2.5,1.1c0.9,0,1.7-0.4,2.3-0.9c0.6-0.6,0.9-1.3,0.9-2.5v-4.9
		c0-0.9,0-1.5-0.2-1.7s-0.4-0.6-0.9-0.9h1.9c0.8,0,1.3-0.2,1.7-0.6v10.6c0,0.9,0,1.5,0.2,1.7C480.6,49.1,480.8,49.4,481.4,49.8
		L481.4,49.8z M491.3,48.1l-1.5,2.1c-0.4,0.2-0.6,0.2-0.9,0.2c-1.1,0-2.1-0.4-2.8-1.1c-0.6-0.6-0.8-1.1-0.9-1.9v-8.3h-1.9v-0.9
		c0.9-0.2,1.7-0.6,2.3-1.1c0.8-0.8,0.9-1.9,0.9-3.4v-0.8h1.1V37h2.1c0.8,0,1.3,0,1.7-0.2v2.5c-0.4-0.4-0.9-0.6-1.7-0.6h-2.1v5.8
		c0,1.3,0.2,2.3,0.6,2.6c0.6,0.6,1.1,0.9,2.1,0.9C490.4,48.3,490.8,48.1,491.3,48.1z M497.2,49.8h-4.7c0.6-0.4,0.8-0.8,0.9-0.9
		c0.2-0.2,0.2-0.9,0.2-1.7v-7.4c0-0.9,0-1.5-0.2-1.7s-0.4-0.6-0.9-0.9h1.9c0.8,0,1.3-0.2,1.7-0.6v10.6c0,0.9,0,1.5,0.2,1.7
		C496.3,48.9,497.2,49.8,497.2,49.8z M496.6,33.6c0,0.6-0.2,0.9-0.6,1.3c-0.4,0.4-0.8,0.6-1.3,0.6c-0.6,0-0.9-0.2-1.1-0.6
		c-0.4-0.4-0.6-0.8-0.6-1.3c0-0.6,0.2-0.9,0.6-1.1c0.4-0.4,0.8-0.6,1.3-0.6c0.4,0,0.9,0.2,1.1,0.6C496.4,32.6,496.6,33,496.6,33.6z
		 M512.8,49.8h-4.5c0.6-0.4,0.8-0.8,0.9-0.9c0.2-0.2,0.2-0.9,0.2-1.7v-4.6c0-1.3-0.2-2.3-0.6-2.8c-0.6-0.8-1.5-1.1-2.8-1.1
		c-0.6,0-1.1,0.2-1.7,0.4s-0.9,0.6-1.1,1.1c-0.2,0.2-0.2,0.8-0.2,1.3v5.7c0,0.9,0,1.5,0.2,1.7s0.4,0.6,0.9,0.9h-4.7
		c0.6-0.4,0.8-0.8,0.9-0.9c0.2-0.2,0.2-0.9,0.2-1.7v-7.4c0-0.9,0-1.5-0.2-1.7s-0.4-0.6-0.9-0.9h1.9c0.8,0,1.3-0.2,1.7-0.6v2.3
		c1.3-1.5,2.6-2.1,4.1-2.1c0.9,0,1.9,0.2,2.6,0.6c0.9,0.6,1.5,1.1,1.9,1.9c0.2,0.6,0.4,1.7,0.4,3.2v4.7c0,0.9,0,1.5,0.2,1.7
		C512.1,49.1,512.5,49.4,512.8,49.8L512.8,49.8z M530.2,36.6l-0.8,1.9c-0.2,0.2-0.4,0.4-0.8,0.4c-0.6,0-1.5-0.2-3-0.4
		c1.3,0.9,2.1,2.1,2.1,3.4c0,1.7-1.1,3-3.2,3.8c-0.8,0.2-1.7,0.4-2.8,0.6c-0.8,0.2-1.1,0.4-1.1,0.8s0.4,0.6,1.1,0.6
		c2.1,0,3.8,0.2,4.7,0.4c1.1,0.4,2.1,0.9,2.6,1.7c0.4,0.6,0.6,1.1,0.6,2.1c0,1.7-0.9,2.8-2.6,3.8c-1.5,0.8-3,1.1-4.9,1.1
		c-2.1,0-4-0.4-5.5-1.1s-2.3-1.7-2.3-2.8c0-0.8,0.2-1.3,0.8-1.7c0.4-0.4,1.1-0.6,1.9-0.6c0.6,0,0.9,0.2,1.5,0.4
		c-0.8,0.2-1.3,0.6-1.3,1.3c0,0.9,0.4,1.7,1.3,2.3c0.9,0.6,2.1,0.8,3.4,0.8c1.5,0,2.6-0.2,3.6-0.8s1.3-1.3,1.3-2.3
		c0-1.7-1.9-2.6-5.7-2.6h-1.9c-0.6,0-0.9-0.2-1.3-0.6c-0.4-0.4-0.6-0.9-0.6-1.5c0-0.2,0.2-0.6,0.4-0.8c0.2-0.2,0.9-0.4,1.9-0.8
		c-0.8-0.2-1.5-0.6-2.1-0.9c-0.9-0.9-1.5-2.1-1.5-3.4s0.6-2.5,1.7-3.4s2.5-1.3,4.1-1.3c0.4,0,1.1,0,2.5,0.2c0.9,0,1.9,0.2,2.6,0.2
		C527.8,36.8,528.9,36.8,530.2,36.6L530.2,36.6z M524.9,41.5c0-0.9-0.4-1.7-0.9-2.5c-0.8-0.6-1.5-0.9-2.5-0.9
		c-0.8,0-1.5,0.2-2.1,0.8s-0.8,1.1-0.8,1.9c0,0.9,0.4,1.9,1.1,2.5s1.5,1.1,2.5,1.1c0.8,0,1.5-0.2,2.1-0.8
		C524.9,43,524.9,42.5,524.9,41.5z M551.5,44.5c0,1.3-0.6,2.6-1.7,3.8c-1.5,1.3-3.4,2.1-5.8,2.1c-1.7,0-3.4-0.4-4.9-0.9l-0.8-3.4
		c1.9,1.5,4,2.3,6,2.3c1.1,0,2.3-0.2,3-0.8c0.7-0.6,1.1-1.1,1.1-2.1c0-0.8-0.4-1.5-0.9-1.9c-0.6-0.4-1.7-1.1-3.6-1.9
		c-1.9-0.8-3.2-1.5-3.8-2.3c-0.9-0.9-1.5-1.9-1.5-3.2c0-1.5,0.6-2.6,1.9-3.6s3-1.3,5.1-1.3c1.3,0,2.8,0.2,4.3,0.6v2.8
		c-1.3-1.1-2.6-1.9-4.3-1.9c-1.1,0-1.9,0.2-2.6,0.8c-0.8,0.6-0.9,1.1-0.9,1.9c0,0.8,0.2,1.3,0.8,1.7s1.7,1.1,3.4,1.9
		c2.1,0.9,3.4,1.7,4.1,2.3C551,42.3,551.5,43.2,551.5,44.5L551.5,44.5z M566.8,46.8l-1.5,2.6c-1.1,0.4-2.5,0.8-3.8,0.8
		c-2.3,0-4.1-0.6-5.7-1.9c-1.6-1.3-2.3-2.8-2.3-4.9s0.8-3.8,2.3-5.1c1.1-1.1,2.6-1.7,4.7-1.7c1.9,0,3.4,0.6,4.5,1.7s1.9,2.6,1.9,4.3
		V43h-10.1c0,1.7,0.6,2.8,1.5,3.8c0.9,0.9,2.3,1.3,4,1.3C563.8,48.3,565.5,47.9,566.8,46.8z M563.8,41.3c-0.4-2.1-1.5-3.2-3.6-3.2
		s-3.2,1.1-3.6,3.2H563.8z M576.8,39.2c-0.4-0.4-0.8-0.4-1.3-0.4c-1.1,0-1.9,0.4-2.5,1.1c-0.4,0.6-0.6,1.3-0.6,2.5v4.5
		c0,0.9,0,1.5,0.2,1.7c0.2,0.2,0.4,0.6,0.9,0.9h-4.7c0.6-0.4,0.8-0.8,0.9-0.9c0.2-0.2,0.2-0.9,0.2-1.7v-7.3c0-0.9,0-1.5-0.2-1.7
		c-0.2-0.2-0.4-0.6-0.9-0.9h1.9c0.8,0,1.3-0.2,1.7-0.6v2.3c0.8-1.5,1.9-2.1,3.4-2.1c0.2,0,0.6,0,0.9,0.2
		C576.8,36.8,576.8,39.2,576.8,39.2z M593,37l-6.4,14c-1.1-0.6-1.7-1.1-2.1-1.5c-0.4-0.4-0.8-1.1-1.1-1.9l-3.2-7.5
		c-0.4-0.9-0.8-1.5-0.9-1.9c-0.2-0.4-0.8-0.6-1.5-1.1h1.9c0.9,0,1.5-0.2,2.1-0.6c0,0.4,0.2,0.8,0.4,1.3l4.1,9.6l3.4-7.4
		c0.4-0.8,0.6-1.3,0.6-1.7c0-0.6-0.4-0.9-0.9-1.3L593,37L593,37z M598.9,49.8h-4.7c0.6-0.4,0.8-0.8,0.9-0.9c0.2-0.2,0.2-0.9,0.2-1.7
		v-7.4c0-0.9,0-1.5-0.2-1.7c-0.2-0.2-0.4-0.6-0.9-0.9h1.9c0.8,0,1.3-0.2,1.7-0.6v10.6c0,0.9,0,1.5,0.2,1.7
		C597.9,49.1,598.3,49.4,598.9,49.8z M598.1,33.6c0,0.6-0.2,0.9-0.6,1.3c-0.4,0.4-0.8,0.6-1.3,0.6s-0.9-0.2-1.1-0.6
		c-0.4-0.4-0.6-0.8-0.6-1.3c0-0.6,0.2-0.9,0.6-1.1c0.4-0.4,0.8-0.6,1.3-0.6c0.4,0,0.9,0.2,1.1,0.6C597.9,32.6,598.1,33,598.1,33.6z
		 M613.8,47l-1.7,2.6c-0.8,0.4-2.1,0.6-3.6,0.6c-2.3,0-4-0.6-5.5-1.9c-1.5-1.1-2.1-2.8-2.1-4.7c0-2.1,0.8-3.8,2.3-5.1
		s3.4-1.9,5.7-1.9c0.9,0,2.1,0.2,3,0.4v2.8c-0.9-0.9-2.1-1.3-3.4-1.3c-1.3,0-2.5,0.4-3.4,1.3c-0.8,0.8-1.3,1.9-1.3,3.4
		s0.6,2.8,1.7,3.8c1.1,0.9,2.5,1.5,4.1,1.5C610.9,48.3,612.3,47.9,613.8,47L613.8,47z M627.9,46.8l-1.5,2.6
		c-1.1,0.4-2.5,0.8-3.8,0.8c-2.3,0-4.1-0.6-5.7-1.9c-1.6-1.3-2.3-2.8-2.3-4.9s0.8-3.8,2.3-5.1c1.1-1.1,2.6-1.7,4.7-1.7
		c1.9,0,3.4,0.6,4.5,1.7s1.9,2.6,1.9,4.3V43h-10.4c0,1.7,0.6,2.8,1.5,3.8c0.9,0.9,2.3,1.3,4,1.3C624.9,48.3,626.6,47.9,627.9,46.8z
		 M624.9,41.3c-0.4-2.1-1.5-3.2-3.6-3.2s-3.2,1.1-3.6,3.2H624.9z M640.5,45.8c0,1.3-0.6,2.5-1.7,3.2c-1.1,0.8-2.6,1.1-4.5,1.1
		c-1.3,0-2.5-0.2-3.8-0.8l-0.9-2.8c1.9,1.1,3.6,1.7,5.3,1.7c0.9,0,1.5-0.2,2.1-0.6c0.6-0.4,0.9-0.8,0.9-1.3s-0.2-0.9-0.6-1.3
		c-0.4-0.2-1.1-0.6-2.6-1.1c-1.5-0.6-2.6-1.1-3.2-1.7c-0.6-0.6-0.9-1.3-0.9-2.1c0-1.1,0.6-2.1,1.5-2.8c0.9-0.6,2.3-0.9,4-0.9
		c1.1,0,2.3,0.2,3.2,0.4v2.5c-1.1-0.8-2.3-1.1-3.4-1.1c-0.8,0-1.3,0.2-1.9,0.4c-0.6,0.4-0.8,0.8-0.8,1.1c0,0.4,0.2,0.8,0.6,0.9
		c0.4,0.4,1.1,0.6,2.3,0.9c1.7,0.6,2.8,1.1,3.4,1.7C640.2,44.1,640.5,44.9,640.5,45.8L640.5,45.8z"/>
</g>
</svg>
