<svg width="591" height="421" viewBox="0 0 591 421" xmlns="http://www.w3.org/2000/svg"><title>equipment svg</title><desc>Created with Sketch.</desc><g fill="none"><path d="M521.763 5.786c-3.437-3.445-7.957-5.17-12.47-5.17H80.766c-4.53 0-9.045 1.725-12.488 5.17-3.443 3.444-5.17 7.966-5.17 12.478V313.32h463.824V18.264c0-4.515-1.72-9.034-5.17-12.478zM295.025 10.49c2.906 0 5.254 2.353 5.254 5.254 0 2.9-2.35 5.253-5.255 5.253-2.906 0-5.257-2.352-5.257-5.253 0-2.9 2.35-5.254 5.257-5.254zm201.66 272.56H93.362V30.874h403.326V283.05z" id="Shape" fill="#7598AB"/><path d="M63.11 325.504L1.85 386.606c-1.747 1.748-2.372 4.448-1.37 6.868 1.013 2.43 3.35 3.902 5.828 3.902h577.437c2.48 0 4.818-1.473 5.833-3.902 1.003-2.42.37-5.12-1.378-6.868l-61.265-61.102H63.11zm460.645 34.54c1.25 1.443 1.613 3.542.764 5.395-.854 1.85-2.677 2.936-4.592 2.936H355.924l.923 4.205c.186.863 0 1.8-.604 2.548-.593.747-1.473 1.125-2.364 1.125H236.152c-.874 0-1.747-.378-2.35-1.125-.598-.75-.795-1.685-.612-2.547l.93-4.204h-164c-1.913 0-3.74-1.086-4.586-2.937-.853-1.854-.493-3.953.758-5.396l16.666-19.408h424.128l16.67 19.408zM583.742 401.16H346.088c-.272.605-.617 1.168-1.045 1.685-1.295 1.526-3.195 2.408-5.21 2.408h-89.617c-2.006 0-3.91-.885-5.207-2.408-.43-.517-.783-1.08-1.042-1.685H6.305c-2.346 0-4.538-.827-6.296-2.234v6.33c0 3.875 1.483 7.748 4.433 10.696 2.947 2.957 6.815 4.436 10.695 4.436h559.76c3.876 0 7.76-1.48 10.706-4.436 2.953-2.948 4.425-6.824 4.425-10.696v-6.33c-1.74 1.404-3.937 2.234-6.288 2.234zM53.317 414.078c-1.81 0-3.287-1.48-3.287-3.31 0-1.82 1.478-3.298 3.287-3.298 1.826 0 3.298 1.478 3.298 3.3 0 1.83-1.472 3.308-3.298 3.308zm15.855 0c-1.815 0-3.305-1.48-3.305-3.31 0-1.82 1.487-3.298 3.305-3.298 1.835 0 3.304 1.478 3.304 3.3 0 1.83-1.47 3.308-3.304 3.308zm15.866 0c-1.83 0-3.307-1.48-3.307-3.31 0-1.82 1.48-3.298 3.308-3.298 1.814 0 3.29 1.478 3.29 3.3-.003 1.83-1.476 3.308-3.29 3.308z" fill="#5E889E"/></g></svg>