<svg width="566" height="486" viewBox="0 0 566 486" xmlns="http://www.w3.org/2000/svg"><title>WebHost SVGS</title><desc>Created with Sketch.</desc><path d="M1.947 414.35c-.663 1.562-.947 4.682-.947 7.804 0 34.434 61.16 62.626 136.617 62.626 75.455 0 136.615-28.192 136.615-62.626 0-3.122-.284-6.242-.947-7.803-8.425 29.752-66.083 54.724-135.668 54.724-69.68 0-127.245-24.972-135.67-54.723zm68 39.767c-.663 1.56-.947 4.683-.947 7.803 0 34.436 61.16 62.626 136.617 62.626 75.455 0 136.615-28.19 136.615-62.626 0-3.12-.284-6.242-.947-7.803-8.425 29.753-66.083 54.725-135.668 54.725-69.68 0-127.245-24.972-135.67-54.725zm271.433 0c-8.426 30.825-66.083 54.725-135.668 54.725v15.606c75.455 0 136.615-27.995 136.615-62.624 0-2.537-.285-5.17-.947-7.707zM69.947 375.884c-.663 1.56-.947 4.682-.947 7.804 0 34.434 61.16 62.626 136.617 62.626 75.455 0 136.615-28.192 136.615-62.626 0-3.122-.284-6.243-.947-7.804-8.425 29.752-66.083 54.724-135.668 54.724-69.68.098-127.245-24.972-135.67-54.724zm271.433 0c-8.426 30.825-66.083 54.724-135.668 54.724v15.608c75.455 0 136.615-27.996 136.615-62.626 0-2.536-.285-5.17-.947-7.706zm0 156.467c-8.426 29.752-66.083 54.724-135.668 54.724v15.608c75.455 0 136.615-28.19 136.615-62.626 0-3.024-.285-6.144-.947-7.705zm.947-211.19c0 34.532-61.16 62.626-136.615 62.626C130.255 383.786 69 355.692 69 321.16s61.16-62.626 136.617-62.626c75.455 0 136.71 28.094 136.71 62.626zM69 321.16v215.895V321.16zm273.232 2.398v215.894-215.894zm18.25 69.26c-.665 1.56-.948 4.68-.948 7.802 0 34.434 61.16 62.626 136.616 62.626 75.456 0 136.617-28.192 136.617-62.626 0-3.122-.285-6.242-.948-7.803-8.426 29.75-66.085 54.723-135.67 54.723-69.682 0-127.243-24.972-135.67-54.723zm0-78.235c-.665 1.56-.948 4.683-.948 7.802 0 34.437 61.16 62.627 136.616 62.627 75.456 0 136.617-28.19 136.617-62.627 0-3.12-.285-6.24-.948-7.802-8.426 29.753-66.085 54.725-135.67 54.725-69.682 0-127.243-24.972-135.67-54.725zm271.433 0c-8.426 30.825-66.085 54.725-135.67 54.725v15.606c75.455 0 136.617-27.995 136.617-62.624 0-2.537-.285-5.17-.947-7.707zM360.48 236.35c-.663 1.56-.946 4.683-.946 7.804 0 34.435 61.16 62.626 136.616 62.626 75.456 0 136.617-28.19 136.617-62.626 0-3.12-.285-6.243-.948-7.804-8.426 29.752-66.085 54.724-135.67 54.724-69.682.098-127.243-24.972-135.67-54.724zm271.435 0c-8.426 30.826-66.085 54.724-135.67 54.724v15.608c75.455 0 136.617-27.996 136.617-62.625 0-2.536-.285-5.17-.947-7.707zm0 156.467c-8.426 29.75-66.085 54.723-135.67 54.723v15.608c75.455 0 136.617-28.19 136.617-62.626 0-3.024-.285-6.144-.947-7.705zm.947-211.19c0 34.53-61.162 62.625-136.617 62.625-75.457 0-136.71-28.094-136.71-62.626S420.692 119 496.15 119c75.456 0 136.712 28.094 136.712 62.626zm-273.328 0V397.52 181.627zm273.233 2.397v215.894-215.894z" stroke="#F6ECEC" stroke-width="2" fill="none"/></svg>