<svg width="524" height="393" viewBox="0 0 524 393" xmlns="http://www.w3.org/2000/svg"><title>locked</title><desc>Created with Sketch.</desc><path d="M0 131V32.605C0 14.568 14.683 0 32.795 0h180.08l32.75 65.5H442.03c18.156 0 32.845 14.64 32.845 32.7V131H0zm0 16.375v180.27c0 18.007 14.568 32.605 32.605 32.605H360.25v-65.543c0-12.09 6.586-22.667 16.375-28.327v-28.847c0-40.745 32.99-73.783 73.688-73.783 8.607 0 16.875 1.484 24.562 4.21v-20.585H0zm393 90.15c0-31.73 25.66-57.4 57.313-57.4 31.588 0 57.312 25.7 57.312 57.4v40.85c9.067 0 16.375 7.353 16.375 16.423v81.78c0 9.252-7.313 16.422-16.335 16.422H392.96c-9.027 0-16.335-7.353-16.335-16.423v-81.78c0-9.252 7.313-16.422 16.335-16.422l.04-40.85zm16.375.065c0-22.875 18.328-41.09 40.938-41.09 22.766 0 40.937 18.397 40.937 41.09v40.785h-81.875V237.59z" fill="#fff"/></svg>