<svg width="562" height="343" viewBox="0 0 562 343" xmlns="http://www.w3.org/2000/svg"><title>Imported Layers</title><desc>Created with Sketch.</desc><g stroke="#fff" stroke-width="2" fill="none"><path d="M561.004 309.533v7.91c0 13.102-10.726 23.735-23.958 23.735h-511.1c-13.23 0-23.957-10.633-23.957-23.734v-7.91h559.014z"/><path d="M245.56 309.533h71.873c6.612 0 11.98 3.766 11.98 8.402 0 4.644-5.368 8.41-11.98 8.41H245.56c-6.612 0-11.98-3.766-11.98-8.41 0-4.636 5.368-8.402 11.98-8.402z"/><path d="M73.863 1H489.13c8.81 0 15.972 7.08 15.972 15.822v292.71H57.892V16.823C57.89 8.08 65.045 1 73.86 1zm6.986 22.733h399.294V284.8H80.85V23.733z"/></g></svg>