<svg width="309" height="429" viewBox="0 0 309 429" xmlns="http://www.w3.org/2000/svg"><title>Security</title><desc>Created with Sketch.</desc><g fill="#D8D8D8"><path d="M258.227 322.443v-220.6h33.263l2.747 13.453c9.2 45.033 14.27 69.838 14.27 95.03 0 28.887-15.795 65.075-46.936 107.555l-3.343 4.563zm3.726-216.726V310.91c28.424-39.782 42.827-73.603 42.827-100.584 0-24.784-5.043-49.45-14.185-94.224l-2.12-10.385h-26.522z"/><path d="M288.757 107.257c-4.064-19.923-8.51-41.943-13.404-67.942-.423-2.18-2.49-4.862-4.422-5.73-5.886-2.563-13.37-5.678-18.615-7.745l-.01.03-14.94-5.558c-29.208-10.204-55.102-15.15-80.49-15.448-.69-.11-1.133-.088-1.64-.073l-.72.017c-.437 0-.88-.026-1.332-.057-.367-.02-.74-.046-1.103-.046-23.236.346-47.277 4.68-73.47 13.242-12.74 4.174-26.377 9.44-40.53 15.644-1.944.88-4.035 3.555-4.458 5.735-4.883 25.942-9.17 47.213-12.723 64.6l-3.648-.807c3.552-17.37 7.84-38.62 12.714-64.552.67-3.415 3.592-7.16 6.652-8.536 14.29-6.267 28.036-11.573 40.87-15.78 26.54-8.678 50.93-13.065 74.568-13.421.462 0 .904.024 1.35.05.374.026.746.052 1.11.052l.6-.016c.626-.026 1.35-.046 2.126.104 25.503.28 51.725 5.28 81.306 15.613 1.063.228 3.667 1.19 10.513 3.844 1.163.445 2.326.894 3.498 1.354l.03-.025 1.004.393c5.286 2.082 12.838 5.229 18.795 7.822 3.06 1.375 5.957 5.12 6.617 8.536 4.9 25.988 9.336 47.987 13.405 67.895l-3.653.807"/><path d="M121.153 401.824l-3.15-3.142c-19.237-19.142-47.09-48.675-70.544-80.656l2.96-2.35c22.064 30.08 48.063 58 67.007 77.06V103.77h3.726v298.054"/><path d="M50.803 322.608l-3.344-4.572c-6.748-9.217-12.8-18.166-17.976-26.588-1.143-1.808-2.246-3.683-3.35-5.564-2.925-4.872-5.643-9.8-8.062-14.627-1.143-2.237-2.246-4.47-3.3-6.712-.6-1.245-1.152-2.45-1.708-3.71-.596-1.29-1.203-2.66-1.764-4.045-.542-1.214-1.053-2.454-1.515-3.735l-.22-.553c-.376-.946-.744-1.865-1.082-2.826-1.47-3.99-2.514-7.11-3.36-10.08l-.143-.476c-.362-1.214-.71-2.402-.983-3.62-.274-.942-.527-1.94-.76-2.946l-.115.02-.382-2.346.248-.05-.248.045c-.105-.635-.388-1.617-.676-2.63-.432-1.518-.835-2.955-.934-3.983-.1-.775-.204-1.612-.253-2.392-.15-1.468-.254-2.997-.303-4.52-.05-1.236-.1-2.538-.1-3.783 0-1.194 0-2.392.05-3.586 0-1.117.05-2.27.094-3.416.174-4.908.447-9 .86-12.994.084-1.116.208-2.29.343-3.498l.055-.542c.303-2.94.656-5.947 1.103-8.995.25-1.995.547-3.984.904-6.092 2.316-15.428 5.908-33.434 10.45-56.23l3.178-15.984 32.25.004v.263h1.043v220.76zM6.4 229.536c.34 1.638.722 3.327 1.2 4.97.282 1.256.61 2.35.943 3.472l.144.496c.824 2.894 1.838 5.922 3.29 9.848.327.935.674 1.803 1.027 2.692l.25.615c.45 1.26.933 2.412 1.454 3.595.562 1.385 1.148 2.697 1.73 3.963.55 1.25 1.087 2.418 1.673 3.637 1.045 2.216 2.128 4.412 3.26 6.618 2.385 4.76 5.048 9.6 7.935 14.41 1.093 1.855 2.176 3.695 3.304 5.487 4.267 6.934 9.116 14.214 14.466 21.716V105.722h-1.043v-.263H20.546l-2.56 12.86C13.452 141.07 9.87 159.046 7.56 174.422c-.354 2.083-.647 4.015-.89 6.004-.448 3.038-.795 5.983-1.088 8.87l-.06.56c-.13 1.162-.248 2.288-.333 3.414-.408 3.97-.677 7.968-.846 12.66-.05 1.245-.094 2.34-.094 3.482-.05 1.225-.05 2.36-.05 3.503 0 1.188.05 2.434.1 3.632.044 1.452.144 2.893.288 4.335.05.77.15 1.53.243 2.28.07.727.483 2.174.81 3.336.33 1.168.637 2.294.76 3.038z"/><path d="M154.39 428.272c-3.2 0-6.403-1.106-8.848-3.317-1.44-1.292-3.085-2.795-4.884-4.454-.8-.758-1.28-1.218-1.798-1.668l-4.352-4.154c-2.902-2.78-7.07-6.773-8.49-8.1l-6.246-6.128 2.573-2.796 6.186 6.066c1.402 1.312 5.59 5.316 8.497 8.106l4.287 4.092c.497.43 1.02.925 1.535 1.416 2.06 1.912 3.696 3.405 5.132 4.692 3.522 3.192 9.23 3.218 12.713.05 4.134-3.714 10.85-9.877 19.377-18.134 2.51-2.37 5.092-4.908 7.755-7.57V208.095c.005-.816.005-88.18.005-102.372h-66.674v291.576h-3.726V101.842l74.126.005v54.09c0 37.345 0 48.598-.392 52.157h.387v189.922l-.57.58c-2.898 2.892-5.69 5.65-8.392 8.198-8.545 8.282-15.297 14.477-19.455 18.213-2.405 2.175-5.57 3.265-8.744 3.265"/><path d="M190.187 399.385l-2.593-2.785.69-.682c20.037-19.902 48.764-50.39 72.477-83.286l2.977 2.32C239.88 348.06 211 378.719 190.972 398.605l-.785.78"/><path d="M156.29 92.04l-1.79-6.21c-6.03-20.997-10.647-25.791-30.838-32.08l-5.967-1.854 5.967-1.855c20.19-6.287 24.807-11.08 30.838-32.08l1.79-6.21 1.782 6.21c6.042 20.998 10.652 25.798 30.848 32.08l5.967 1.856-5.967 1.855c-20.196 6.288-24.806 11.083-30.848 32.08l-1.783 6.21zm-25.975-40.144c15.083 5.4 20.782 11.325 25.974 27.01 5.185-15.68 10.89-21.61 25.973-27.01-15.084-5.4-20.788-11.325-25.974-27.012-5.193 15.687-10.892 21.613-25.975 27.012z"/></g></svg>