<svg width="482" height="401" viewBox="0 0 482 401" xmlns="http://www.w3.org/2000/svg"><title>Hosting Services</title><desc>Created with Sketch.</desc><g fill="#5E889E"><path d="M282.413 84.865h18.797V99.48c1.443-.093 2.898-.15 4.358-.15 36.994 0 67.505 28.28 70.982 64.346 1.773-.092 3.536-.135 5.29-.135 5.872 0 11.632.49 17.258 1.377V84.865h18.796c3.157 0 6.158-1.87 7.433-4.957 1.284-3.097.488-6.527-1.747-8.76l-67.73-67.67c-1.453-1.45-3.48-2.357-5.695-2.357-2.216 0-4.233.907-5.693 2.36l-67.744 67.668c-2.225 2.233-3.024 5.663-1.74 8.76 1.288 3.087 4.276 4.957 7.435 4.957zM381.84 176.385c-6.267 0-12.388.62-18.318 1.763.32-2.483.505-5.01.505-7.576 0-32.25-26.18-58.398-58.46-58.398-11.818 0-22.793 3.506-31.982 9.522C258.61 79.868 218.6 49.933 171.578 49.933c-59.812 0-108.314 48.44-108.314 108.198 0 4.263.278 8.465.766 12.61C43.84 172.528 28 189.448 28 210.088c0 9.245 3.184 17.725 8.51 24.463C16.906 247.677 4 270 4 295.346c0 40.4 32.787 73.153 73.233 73.153h81.715l-35.61-35.57c-5.995-5.98-7.775-14.917-4.526-22.75 3.242-7.827 10.826-12.884 19.306-12.884h5.937V220.38c0-5.57 2.176-10.813 6.122-14.755 3.955-3.954 9.195-6.124 14.782-6.124h81.797c5.583 0 10.833 2.17 14.78 6.125 3.947 3.933 6.123 9.186 6.123 14.754v76.914h5.937c8.482 0 16.066 5.06 19.308 12.893 3.25 7.82 1.47 16.752-4.526 22.742l-35.61 35.568h129.065c53.102 0 96.16-43.003 96.16-96.056.005-53.055-43.053-96.057-96.155-96.057zM281.036 315.095c-1.277-3.09-4.275-4.96-7.434-4.96h-18.787v-89.758c0-2.055-.8-4.11-2.368-5.677-1.562-1.57-3.62-2.358-5.686-2.358h-81.797c-2.057 0-4.114.788-5.685 2.358-1.58 1.567-2.36 3.622-2.36 5.677v89.758H138.12c-3.156 0-6.147 1.87-7.432 4.96-1.277 3.096-.488 6.527 1.747 8.757l67.742 67.667c1.453 1.45 3.47 2.357 5.685 2.357 2.226 0 4.233-.907 5.693-2.358l67.742-67.668c2.235-2.23 3.024-5.66 1.74-8.757z"/></g></svg>