<?xml version="1.0" encoding="UTF-8" standalone="no"?>
<svg width="591px" height="421px" viewBox="0 0 591 421" version="1.1" xmlns="http://www.w3.org/2000/svg" xmlns:xlink="http://www.w3.org/1999/xlink" xmlns:sketch="http://www.bohemiancoding.com/sketch/ns">
    <!-- Generator: Sketch 3.2.2 (9983) - http://www.bohemiancoding.com/sketch -->
    <title>equipment svg</title>
    <desc>Created with Sketch.</desc>
    <defs></defs>
    <g id="Welcome" stroke="none" stroke-width="1" fill="none" fill-rule="evenodd" sketch:type="MSPage">
        <g id="Desktop-HD-5" sketch:type="MSArtboardGroup" transform="translate(-766.000000, -1281.000000)">
            <g id="equipment-svg" sketch:type="MSLayerGroup" transform="translate(766.000000, 1281.000000)">
                <g id="Group" sketch:type="MSShapeGroup">
                    <path d="M521.763294,5.78576389 C518.326254,2.34149306 513.806473,0.614930556 509.292592,0.614930556 L80.76601,0.614930556 C76.2373781,0.614930556 71.7205473,2.34149306 68.277607,5.78576389 C64.8346667,9.23003472 63.1087711,13.7515625 63.1087711,18.2642361 L63.1087711,313.320486 L526.932129,313.320486 L526.932129,18.2642361 C526.932129,13.7486111 525.212134,9.23003472 521.763294,5.78576389 L521.763294,5.78576389 Z M295.024876,10.4902778 C297.930871,10.4902778 300.279269,12.8425347 300.279269,15.74375 C300.279269,18.6449653 297.930871,20.9972222 295.024876,20.9972222 C292.118881,20.9972222 289.767532,18.6449653 289.767532,15.74375 C289.767532,12.8425347 292.118881,10.4902778 295.024876,10.4902778 L295.024876,10.4902778 Z M496.686179,283.051042 L93.3606219,283.051042 L93.3606219,30.8725694 L496.686179,30.8725694 L496.686179,283.051042 L496.686179,283.051042 Z" id="Shape" fill="#7598AB"></path>
                    <path d="M63.1087711,325.503819 L1.84980597,386.606424 C0.103258706,388.353646 -0.52219403,391.054167 0.480890547,393.474306 C1.49282587,395.903299 3.82942289,397.376042 6.30763184,397.376042 L583.74507,397.376042 C586.226229,397.376042 588.562826,395.903299 589.577711,393.474306 C590.580796,391.054167 589.949443,388.353646 588.199945,386.606424 L526.93508,325.503819 L63.1087711,325.503819 L63.1087711,325.503819 Z M523.754711,360.043924 C525.005617,361.487153 525.368498,363.58559 524.518826,365.439062 C523.666204,367.289583 521.84295,368.375694 519.928239,368.375694 L355.92391,368.375694 L356.847338,372.581424 C357.033204,373.443229 356.847338,374.378819 356.242537,375.128472 C355.649537,375.875174 354.770363,376.252951 353.879388,376.252951 L236.152662,376.252951 C235.279388,376.252951 234.406114,375.875174 233.804264,375.128472 C233.205363,374.378819 233.007697,373.443229 233.190612,372.581424 L234.11994,368.375694 L70.1185622,368.375694 C68.206801,368.375694 66.380597,367.289583 65.5338756,365.439062 C64.6812537,363.58559 65.0411841,361.487153 66.2920896,360.043924 L82.9580448,340.63559 L507.085806,340.63559 L523.754711,360.043924 L523.754711,360.043924 Z" id="Shape" fill="#5E889E"></path>
                    <path d="M583.742119,401.159722 L346.087781,401.159722 C345.816358,401.764757 345.471179,402.328472 345.043393,402.844965 C343.748234,404.370833 341.848274,405.253299 339.833254,405.253299 L250.216498,405.253299 C248.210328,405.253299 246.307418,404.367882 245.009308,402.844965 C244.578572,402.328472 244.227493,401.764757 243.967871,401.159722 L6.30468159,401.159722 C3.95923383,401.159722 1.767199,400.333333 0.00885074627,398.925521 L0.00885074627,405.25625 C0.00885074627,409.131424 1.49282587,413.003646 4.44307463,415.952083 C7.39037313,418.909375 11.2581493,420.388021 15.1377264,420.388021 L574.897274,420.388021 C578.7739,420.388021 582.659378,418.909375 585.603726,415.952083 C588.556925,413.003646 590.0291,409.128472 590.0291,405.25625 L590.0291,398.925521 C588.291403,400.330382 586.093468,401.159722 583.742119,401.159722 L583.742119,401.159722 Z M53.3168955,414.077951 C51.508393,414.077951 50.0303184,412.599306 50.0303184,410.769444 C50.0303184,408.948438 51.508393,407.469792 53.3168955,407.469792 C55.1430995,407.469792 56.6152736,408.948438 56.6152736,410.769444 C56.6152736,412.599306 55.1430995,414.077951 53.3168955,414.077951 L53.3168955,414.077951 Z M69.1715323,414.077951 C67.3571294,414.077951 65.8672537,412.599306 65.8672537,410.769444 C65.8672537,408.948438 67.3541791,407.469792 69.1715323,407.469792 C71.0065871,407.469792 72.4758109,408.948438 72.4758109,410.769444 C72.4758109,412.599306 71.0065871,414.077951 69.1715323,414.077951 L69.1715323,414.077951 Z M85.0379701,414.077951 C83.2088159,414.077951 81.7307413,412.599306 81.7307413,410.769444 C81.7307413,408.948438 83.2088159,407.469792 85.0379701,407.469792 C86.8523731,407.469792 88.3274975,408.948438 88.3274975,410.769444 C88.3245473,412.599306 86.8523731,414.077951 85.0379701,414.077951 L85.0379701,414.077951 Z" id="Shape" fill="#5E889E"></path>
                </g>
            </g>
        </g>
    </g>
</svg>