<?xml version="1.0" encoding="UTF-8" standalone="no"?>
<svg width="566px" height="486px" viewBox="0 0 566 486" version="1.1" xmlns="http://www.w3.org/2000/svg" xmlns:xlink="http://www.w3.org/1999/xlink" xmlns:sketch="http://www.bohemiancoding.com/sketch/ns">
    <!-- Generator: Sketch 3.2.2 (9983) - http://www.bohemiancoding.com/sketch -->
    <title>WebHost SVGS</title>
    <desc>Created with Sketch.</desc>
    <defs></defs>
    <g id="Welcome" stroke="none" stroke-width="1" fill="none" fill-rule="evenodd" sketch:type="MSPage">
        <g id="Desktop-HD-2" sketch:type="MSArtboardGroup" transform="translate(-194.000000, -400.000000)" stroke="#F6ECEC" stroke-width="2">
            <g id="Service-Group" sketch:type="MSLayerGroup" transform="translate(126.000000, 282.000000)">
                <path d="M69.9472235,532.351069 C69.2839765,533.912218 69,537.031571 69,540.153869 C69,574.587518 130.160718,602.779516 205.616506,602.779516 C281.072294,602.779516 342.232059,574.587518 342.232059,540.153869 C342.232059,537.031571 341.948082,533.912218 341.284835,532.351069 C332.859882,562.102252 275.202176,587.073766 205.616506,587.073766 C135.935541,587.073766 78.3721765,562.102252 69.9472235,532.351069 L69.9472235,532.351069 Z M69.9472235,454.116875 C69.2839765,455.678024 69,458.800323 69,461.919675 C69,496.35627 130.160718,524.546304 205.616506,524.546304 C281.072294,524.546304 342.232059,496.35627 342.232059,461.919675 C342.232059,458.800323 341.948082,455.678024 341.284835,454.116875 C332.859882,483.870022 275.202176,508.841536 205.616506,508.841536 C135.935541,508.841536 78.3721765,483.870022 69.9472235,454.116875 L69.9472235,454.116875 Z M341.380129,454.116875 C332.954224,484.942208 275.296518,508.841536 205.7118,508.841536 L205.7118,524.448119 C281.166635,524.448119 342.327353,496.453474 342.327353,461.824435 C342.327353,459.287323 342.042424,456.653988 341.380129,454.116875 L341.380129,454.116875 Z M69.9472235,375.883663 C69.2839765,377.444813 69,380.566129 69,383.688427 C69,418.122077 130.160718,446.314075 205.616506,446.314075 C281.072294,446.314075 342.232059,418.122077 342.232059,383.688427 C342.232059,380.566129 341.948082,377.444813 341.284835,375.883663 C332.859882,405.635829 275.202176,430.608325 205.616506,430.608325 C135.935541,430.705528 78.3721765,405.635829 69.9472235,375.883663 L69.9472235,375.883663 Z M341.380129,375.883663 C332.954224,406.708996 275.296518,430.608325 205.7118,430.608325 L205.7118,446.215889 C281.166635,446.215889 342.327353,418.220262 342.327353,383.590242 C342.327353,381.054111 342.042424,378.419794 341.380129,375.883663 L341.380129,375.883663 Z M341.380129,532.351069 C332.954224,562.102252 275.296518,587.073766 205.7118,587.073766 L205.7118,602.682313 C281.166635,602.682313 342.327353,574.492278 342.327353,540.055683 C342.327353,537.031571 342.042424,533.912218 341.380129,532.351069 L341.380129,532.351069 Z M342.327353,321.159984 C342.327353,355.691819 281.166635,383.785631 205.7118,383.785631 C130.255059,383.785631 69,355.691819 69,321.159984 C69,286.628149 130.160718,258.534337 205.616506,258.534337 C281.072294,258.534337 342.327353,286.628149 342.327353,321.159984 L342.327353,321.159984 Z M69,321.159984 L69,537.055135 L69,321.159984 Z M342.232059,323.557673 L342.232059,539.451843 L342.232059,323.557673 Z M360.480882,392.816732 C359.816682,394.377881 359.533659,397.498216 359.533659,400.619532 C359.533659,435.054163 420.693424,463.246161 496.150165,463.246161 C571.605953,463.246161 632.766671,435.054163 632.766671,400.619532 C632.766671,397.498216 632.481741,394.377881 631.819447,392.816732 C623.393541,422.567915 565.734882,447.540411 496.150165,447.540411 C426.468247,447.540411 368.906788,422.567915 360.480882,392.816732 L360.480882,392.816732 Z M360.480882,314.582538 C359.816682,316.143687 359.533659,319.265986 359.533659,322.385339 C359.533659,356.821933 420.693424,385.011968 496.150165,385.011968 C571.605953,385.011968 632.766671,356.821933 632.766671,322.385339 C632.766671,319.265986 632.481741,316.143687 631.819447,314.582538 C623.393541,344.335685 565.734882,369.308181 496.150165,369.308181 C426.468247,369.308181 368.906788,344.335685 360.480882,314.582538 L360.480882,314.582538 Z M631.914741,314.582538 C623.488835,345.407871 565.830176,369.308181 496.245459,369.308181 L496.245459,384.913782 C571.700294,384.913782 632.861965,356.919137 632.861965,322.290099 C632.861965,319.752986 632.577035,317.119651 631.914741,314.582538 L631.914741,314.582538 Z M360.480882,236.350308 C359.816682,237.911458 359.533659,241.032774 359.533659,244.154091 C359.533659,278.588722 420.693424,306.779738 496.150165,306.779738 C571.605953,306.779738 632.766671,278.588722 632.766671,244.154091 C632.766671,241.032774 632.481741,237.911458 631.819447,236.350308 C623.393541,266.102474 565.734882,291.073988 496.150165,291.073988 C426.468247,291.172173 368.906788,266.102474 360.480882,236.350308 L360.480882,236.350308 Z M631.914741,236.350308 C623.488835,267.175641 565.830176,291.073988 496.245459,291.073988 L496.245459,306.681552 C571.700294,306.681552 632.861965,278.685925 632.861965,244.056887 C632.861965,241.520756 632.577035,238.88644 631.914741,236.350308 L631.914741,236.350308 Z M631.914741,392.816732 C623.488835,422.567915 565.830176,447.540411 496.245459,447.540411 L496.245459,463.147976 C571.700294,463.147976 632.861965,434.957942 632.861965,400.522329 C632.861965,397.498216 632.577035,394.377881 631.914741,392.816732 L631.914741,392.816732 Z M632.861965,181.625647 C632.861965,216.158464 571.700294,244.252276 496.245459,244.252276 C420.787765,244.252276 359.533659,216.158464 359.533659,181.625647 C359.533659,147.093812 420.693424,119 496.150165,119 C571.605953,119 632.861965,147.093812 632.861965,181.625647 L632.861965,181.625647 Z M359.533659,181.625647 L359.533659,397.520798 L359.533659,181.625647 Z M632.766671,184.024319 L632.766671,399.917506 L632.766671,184.024319 Z" id="WebHost-SVGS" sketch:type="MSShapeGroup"></path>
            </g>
        </g>
    </g>
</svg>