<?xml version="1.0" encoding="UTF-8" standalone="no"?>
<svg width="524px" height="393px" viewBox="0 0 524 393" version="1.1" xmlns="http://www.w3.org/2000/svg" xmlns:xlink="http://www.w3.org/1999/xlink" xmlns:sketch="http://www.bohemiancoding.com/sketch/ns">
    <!-- Generator: Sketch 3.2.2 (9983) - http://www.bohemiancoding.com/sketch -->
    <title>locked</title>
    <desc>Created with Sketch.</desc>
    <defs></defs>
    <g id="Welcome" stroke="none" stroke-width="1" fill="none" fill-rule="evenodd" sketch:type="MSPage">
        <g id="Desktop-HD-5" sketch:type="MSArtboardGroup" transform="translate(-196.000000, -2108.000000)" fill="#FFFFFF">
            <g id="locked" sketch:type="MSLayerGroup" transform="translate(196.000000, 2108.000000)">
                <g id="Page-1" sketch:type="MSShapeGroup">
                    <g id="icon-100-folder-locked">
                        <path d="M9.08995101e-15,131 L9.08995101e-15,32.6051631 C9.08995101e-15,14.5684109 14.6829099,0 32.7951971,0 L212.875,0 L245.625,65.5 L442.029064,65.5 C460.185641,65.5 474.875,80.1405977 474.875,98.20069 L474.875,131 L0,131 L9.08995101e-15,131 L9.08995101e-15,131 Z M0,147.375 L0,327.644837 C0,345.652171 14.5684109,360.25 32.6051631,360.25 L360.25,360.25 L360.25,294.707289 C360.25,282.617183 366.836149,272.040172 376.625,266.379541 L376.625,237.533453 C376.625,196.787701 409.616017,163.75 450.3125,163.75 C458.919654,163.75 467.188167,165.233663 474.875,167.959999 L474.875,147.375 L0,147.375 L0,147.375 Z M393,237.52602 C393,205.795767 418.659681,180.125 450.3125,180.125 C481.900913,180.125 507.625,205.824311 507.625,237.52602 L507.625,278.375 C516.691651,278.375 524,285.727814 524,294.797967 L524,376.577033 C524,385.829692 516.686663,393 507.665207,393 L392.959793,393 C383.933349,393 376.625,385.647186 376.625,376.577033 L376.625,294.797967 C376.625,285.545308 383.938337,278.375 392.959793,278.375 L393,237.52602 L393,237.52602 Z M409.375,237.589794 C409.375,214.714988 427.703343,196.5 450.3125,196.5 C473.079283,196.5 491.25,214.896526 491.25,237.589794 L491.25,278.375 L409.375,278.375 L409.375,237.589794 L409.375,237.589794 Z" id="folder-locked"></path>
                    </g>
                </g>
            </g>
        </g>
    </g>
</svg>