<?xml version="1.0" encoding="UTF-8" standalone="no"?>
<svg width="562px" height="343px" viewBox="0 0 562 343" version="1.1" xmlns="http://www.w3.org/2000/svg" xmlns:xlink="http://www.w3.org/1999/xlink" xmlns:sketch="http://www.bohemiancoding.com/sketch/ns">
    <!-- Generator: Sketch 3.2.2 (9983) - http://www.bohemiancoding.com/sketch -->
    <title>Imported Layers</title>
    <desc>Created with Sketch.</desc>
    <defs></defs>
    <g id="Welcome" stroke="none" stroke-width="1" fill="none" fill-rule="evenodd" sketch:type="MSPage">
        <g id="Desktop-HD-2" sketch:type="MSArtboardGroup" transform="translate(-810.000000, -1358.000000)" stroke="#FFFFFF" stroke-width="2">
            <g id="Equipment-Group" sketch:type="MSLayerGroup" transform="translate(126.000000, 1120.000000)">
                <g id="Imported-Layers" transform="translate(685.000000, 239.000000)" sketch:type="MSShapeGroup">
                    <path d="M560.003521,308.533333 L560.003521,316.444444 C560.003521,329.545244 549.278437,340.177778 536.045775,340.177778 L24.9471831,340.177778 C11.7145211,340.177778 0.98943662,329.545244 0.98943662,316.444444 L0.98943662,308.533333 L560.003521,308.533333 L560.003521,308.533333 Z" id="Stroke-1"></path>
                    <path d="M244.559859,308.533333 L316.433099,308.533333 C323.045437,308.533333 328.411972,312.299022 328.411972,316.934933 C328.411972,321.578756 323.045437,325.344444 316.433099,325.344444 L244.559859,325.344444 C237.947521,325.344444 232.580986,321.578756 232.580986,316.934933 C232.580986,312.299022 237.947521,308.533333 244.559859,308.533333 L244.559859,308.533333 Z" id="Stroke-2"></path>
                    <path d="M72.8626761,0 L488.130282,0 C496.938746,0 504.102113,7.08044444 504.102113,15.8222222 L504.102113,308.533333 L56.8908451,308.533333 L56.8908451,15.8222222 C56.8908451,7.08044444 64.0462254,0 72.8626761,0 L72.8626761,0 Z M80.8485915,23.7333333 L480.144366,23.7333333 L480.144366,284.8 L80.8485915,284.8 L80.8485915,23.7333333 Z" id="Stroke-3"></path>
                </g>
            </g>
        </g>
    </g>
</svg>