<?xml version="1.0" encoding="UTF-8" standalone="no"?>
<svg width="309px" height="429px" viewBox="0 0 309 429" version="1.1" xmlns="http://www.w3.org/2000/svg" xmlns:xlink="http://www.w3.org/1999/xlink" xmlns:sketch="http://www.bohemiancoding.com/sketch/ns">
    <!-- Generator: Sketch 3.2.2 (9983) - http://www.bohemiancoding.com/sketch -->
    <title>Security</title>
    <desc>Created with Sketch.</desc>
    <defs></defs>
    <g id="Welcome" stroke="none" stroke-width="1" fill="none" fill-rule="evenodd" sketch:type="MSPage">
        <g id="Desktop-HD-2" sketch:type="MSArtboardGroup" transform="translate(-295.000000, -2090.000000)" fill="#D8D8D8">
            <g id="IT-Security-Group" sketch:type="MSLayerGroup" transform="translate(126.000000, 1958.000000)">
                <g id="Security" transform="translate(169.000000, 132.000000)" sketch:type="MSShapeGroup">
                    <path d="M258.227206,322.443167 L258.227206,101.842 L291.489667,101.842 L294.237111,115.296 C303.438317,160.328667 308.505937,185.133833 308.505937,210.3265 C308.505937,239.213333 292.711857,275.400667 261.570841,317.881 L258.227206,322.443167 L258.227206,322.443167 Z M261.953397,105.717 L261.953397,310.911167 C290.376778,271.127833 304.779746,237.306833 304.779746,210.3265 C304.779746,185.542 299.736968,160.876333 290.595381,116.102 L288.473937,105.717 L261.953397,105.717 L261.953397,105.717 Z" id="Fill-1"></path>
                    <path d="M288.757127,107.256667 C284.693095,87.334 280.246508,65.3136667 275.352778,39.315 C274.930476,37.1346667 272.863683,34.4531667 270.931032,33.5851667 C265.043651,31.0225 257.56146,27.907 252.314984,25.8403333 L252.305048,25.8713333 L237.365508,20.312 C208.157143,10.1078333 182.262603,5.16333333 156.874825,4.86366667 C156.184238,4.75516667 155.742063,4.77583333 155.235302,4.79133333 L154.514905,4.80683333 C154.077698,4.80683333 153.635524,4.781 153.183413,4.75 C152.815762,4.72933333 152.443143,4.7035 152.08046,4.7035 C128.843937,5.04966667 104.802556,9.3845 78.6099206,17.9456667 C65.8713175,22.1203333 52.2334603,27.3851667 38.0789048,33.5903333 C36.1363175,34.4686667 34.0446825,37.145 33.622381,39.3253333 C28.7385873,65.2671667 24.4509841,86.5383333 20.8986825,103.924167 L17.2519841,103.118167 C20.8042857,85.7478333 25.0918889,64.4973333 29.965746,38.5658333 C30.6364603,35.1506667 33.5577937,31.4048333 36.6182381,30.0305 C50.9069365,23.7633333 64.6540952,18.4571667 77.4870952,14.2515 C104.027508,5.5715 128.416667,1.185 152.055619,0.8285 C152.517667,0.8285 152.959841,0.854333333 153.406984,0.880166667 C153.779603,0.906 154.152222,0.931833333 154.514905,0.931833333 L155.116063,0.916333333 C155.742063,0.8905 156.467429,0.869833333 157.242476,1.01966667 C182.744524,1.29866667 208.966968,6.3 238.547952,16.6333333 C239.611159,16.8606667 242.214524,17.8216667 249.060778,20.4773333 C250.223349,20.9216667 251.385921,21.3711667 252.558429,21.831 L252.588238,21.8051667 L253.591825,22.1978333 C258.878048,24.28 266.429794,27.4265 272.38673,30.0201667 C275.447175,31.3945 278.343667,35.1403333 279.004444,38.5555 C283.903143,64.5438333 288.339794,86.5435 292.408794,106.450667 L288.757127,107.256667" id="Fill-2"></path>
                    <path d="M121.153079,401.823833 L118.003206,398.6825 C98.766127,379.54 70.9140952,350.007333 47.4589683,318.025667 L50.4200476,315.674833 C72.4840635,345.755167 98.4829365,373.675833 117.426889,392.735667 L117.426889,103.769167 L121.153079,103.769167 L121.153079,401.823833" id="Fill-3"></path>
                    <path d="M50.8026032,322.6085 L47.4589683,318.036 C40.7120794,308.818667 34.660746,299.87 29.4838254,291.448333 C28.341127,289.64 27.2381746,287.7645 26.1352222,285.883833 C23.2089206,281.011667 20.4912857,276.082667 18.071746,271.257 C16.9290476,269.019833 15.8260952,266.787833 14.7728254,264.5455 C14.1716667,263.300333 13.6201905,262.0965 13.063746,260.835833 C12.4675556,259.544167 11.8614286,258.175 11.3000159,256.790333 C10.7584762,255.576167 10.246746,254.336167 9.78469841,253.054833 L9.56609524,252.502 C9.18850794,251.5565 8.82085714,250.636833 8.48301587,249.675833 C7.0124127,245.687167 5.96907937,242.5665 5.12447619,239.595667 L4.98039683,239.120333 C4.61771429,237.906167 4.26993651,236.717833 3.99668254,235.4985 C3.72342857,234.558167 3.47004762,233.561 3.23653968,232.5535 L3.12226984,232.574167 L2.73971429,230.2285 L2.98812698,230.176833 L2.73971429,230.223333 C2.63538095,229.587833 2.35219048,228.606167 2.06403175,227.5935 C1.63179365,226.0745 1.22936508,224.638167 1.13,223.61 C1.03063492,222.835 0.926301587,221.998 0.876619048,221.217833 C0.727571429,219.7505 0.623238095,218.221167 0.573555556,216.697 C0.523873016,215.462167 0.474190476,214.160167 0.474190476,212.915 C0.474190476,211.7215 0.474190476,210.522833 0.523873016,209.329333 C0.523873016,208.213333 0.573555556,207.061167 0.618269841,205.914167 C0.79215873,201.005833 1.0654127,196.913833 1.47777778,192.92 C1.5622381,191.804 1.68644444,190.631167 1.8205873,189.422167 L1.8752381,188.879667 C2.17830159,185.939833 2.53104762,182.932833 2.97819048,179.8845 C3.22660317,177.890167 3.52469841,175.901 3.8824127,173.793 C6.19761905,158.365333 9.78966667,140.3595 14.3306508,117.564167 L17.5103333,101.5785 L49.7592698,101.583667 L49.7592698,101.847167 L50.8026032,101.847167 L50.8026032,322.6085 L50.8026032,322.6085 Z M6.40131746,229.536167 C6.73915873,231.174 7.12171429,232.8635 7.59866667,234.5065 C7.88185714,235.762 8.2097619,236.857333 8.54263492,237.9785 L8.68671429,238.4745 C9.51144444,241.367833 10.5249683,244.3955 11.9756984,248.322167 C12.3036032,249.257333 12.651381,250.125333 13.004127,251.014 L13.2525397,251.628833 C13.7046508,252.8895 14.1865714,254.041667 14.7082381,255.224833 C15.2696508,256.6095 15.8559048,257.921833 16.4371905,259.187667 C16.9886667,260.438 17.5252381,261.605667 18.1114921,262.825 C19.1548254,265.0415 20.2379048,267.237333 21.3706667,269.4435 C23.7554286,274.202 26.4184127,279.043167 29.3049683,283.853333 C30.3979841,285.708167 31.4810635,287.5475 32.6088571,289.340333 C36.8765873,296.274 41.7256032,303.553833 47.0764127,311.055833 L47.0764127,105.722167 L46.0330794,105.722167 L46.0330794,105.458667 L20.5459365,105.458667 L17.9872857,118.3185 C13.4512698,141.0725 9.86915873,159.047333 7.55892063,174.423333 C7.2061746,176.5055 6.91304762,178.437833 6.66960317,180.427 C6.22246032,183.465 5.87468254,186.41 5.58155556,189.298167 L5.52193651,189.856167 C5.3927619,191.018667 5.27352381,192.145 5.18906349,193.271333 C4.78166667,197.239333 4.51338095,201.238333 4.34446032,205.929667 C4.29477778,207.174833 4.25006349,208.270167 4.25006349,209.412 C4.20038095,210.6365 4.20038095,211.773167 4.20038095,212.915 C4.20038095,214.103333 4.25006349,215.3485 4.29974603,216.547167 C4.34446032,217.999 4.4438254,219.4405 4.58790476,220.882 C4.6375873,221.651833 4.73695238,222.411333 4.83134921,223.1605 C4.90090476,223.889 5.31326984,225.335667 5.6411746,226.498167 C5.96907937,227.665833 6.27711111,228.792167 6.40131746,229.536167 L6.40131746,229.536167 Z" id="Fill-4"></path>
                    <path d="M154.390698,428.272 C151.191143,428.272 147.986619,427.166333 145.542238,424.955 C144.101444,423.663333 142.456952,422.159833 140.658444,420.501333 C139.858556,419.741833 139.376635,419.282 138.859937,418.8325 L134.507746,414.6785 C131.606286,411.898833 127.437921,407.905 126.017,406.577167 L119.771905,400.4495 L122.34546,397.654333 L128.530937,403.72 C129.931984,405.032333 134.120222,409.0365 137.026651,411.8265 L141.314254,415.9185 C141.811079,416.347333 142.332746,416.843333 142.849444,417.334167 C144.91127,419.245833 146.545825,420.739 147.981651,422.0255 C151.504143,425.2185 157.212667,425.244333 160.695413,422.077167 C164.829,418.362333 171.546079,412.1985 180.071603,403.942167 C182.580571,401.570667 185.164063,399.033833 187.827048,396.373 L187.827048,208.0945 C187.832016,207.278167 187.832016,119.915 187.832016,105.722167 L121.158048,105.722167 L121.158048,397.297833 L117.431857,397.297833 L117.431857,101.842 L191.558206,101.847167 L191.558206,155.937 C191.558206,193.281667 191.558206,204.534667 191.165714,208.0945 L191.553238,208.0945 L191.553238,398.016 L190.981889,398.594667 C188.085397,401.488 185.293238,404.247 182.590508,406.794167 C174.045111,415.076333 167.293254,421.271167 163.134825,425.006667 C160.73019,427.181833 157.565413,428.272 154.390698,428.272" id="Fill-5"></path>
                    <path d="M190.186968,399.385167 L187.59354,396.600333 L188.284127,395.918333 C208.321095,376.016333 237.04754,345.527833 260.761016,312.631667 L263.737,314.9515 C239.879444,348.0595 210.998984,378.7185 190.971952,398.605 L190.186968,399.385167" id="Fill-6"></path>
                    <path d="M156.288571,92.0408333 L154.5,85.8305 C148.46854,64.8331667 143.853032,60.0385 123.662048,53.7506667 L117.695175,51.8958333 L123.662048,50.041 C143.853032,43.7531667 148.46854,38.9585 154.5,17.9611667 L156.288571,11.7508333 L158.072175,17.9611667 C164.113571,38.9585 168.724111,43.7583333 188.920063,50.041 L194.886937,51.8958333 L188.920063,53.7506667 C168.724111,60.0385 164.113571,64.8331667 158.072175,85.8305 L156.288571,92.0408333 L156.288571,92.0408333 Z M130.31454,51.8958333 C145.398159,57.295 151.096746,63.2211667 156.288571,78.9071667 C161.475429,63.2263333 167.178984,57.295 182.262603,51.8958333 C167.178984,46.4966667 161.475429,40.5705 156.288571,24.8845 C151.096746,40.5705 145.398159,46.4966667 130.31454,51.8958333 L130.31454,51.8958333 Z" id="Fill-7"></path>
                </g>
            </g>
        </g>
    </g>
</svg>