<?xml version="1.0" encoding="UTF-8" standalone="no"?>
<svg width="482px" height="401px" viewBox="0 0 482 401" version="1.1" xmlns="http://www.w3.org/2000/svg" xmlns:xlink="http://www.w3.org/1999/xlink" xmlns:sketch="http://www.bohemiancoding.com/sketch/ns">
    <!-- Generator: Sketch 3.2.2 (9983) - http://www.bohemiancoding.com/sketch -->
    <title>Hosting Services</title>
    <desc>Created with Sketch.</desc>
    <defs></defs>
    <g id="Welcome" stroke="none" stroke-width="1" fill="none" fill-rule="evenodd" sketch:type="MSPage">
        <g id="Desktop-HD-5" sketch:type="MSArtboardGroup" transform="translate(-164.000000, -359.000000)" fill="#5E889E">
            <g id="Hosting-Services" sketch:type="MSLayerGroup" transform="translate(168.000000, 360.000000)">
                <g id="Group" sketch:type="MSShapeGroup">
                    <path d="M278.41338,83.865253 L297.20985,83.865253 L297.20985,98.4796446 C298.65318,98.3873133 300.10836,98.330494 301.56828,98.330494 C338.56161,98.330494 369.07299,126.609922 372.54978,162.675958 C374.32254,162.583627 376.08582,162.541012 377.83962,162.541012 C383.71248,162.541012 389.47158,163.028711 395.09796,163.916512 L395.09796,83.865253 L413.89443,83.865253 C417.05127,83.865253 420.05169,81.9949518 421.32675,78.9077711 C422.61129,75.8111205 421.81497,72.3806566 419.58006,70.1481325 L351.8502,2.47874096 C350.39739,1.02748193 348.37104,0.120740964 346.15509,0.120740964 C343.93914,0.120740964 341.92227,1.02748193 340.46235,2.47874096 L272.71827,70.1481325 C270.49284,72.3806566 269.69415,75.8111205 270.97869,78.9077711 C272.2656,81.9949518 275.25417,83.865253 278.41338,83.865253 L278.41338,83.865253 Z" id="Shape"></path>
                    <path d="M377.83962,175.384536 C371.57334,175.384536 365.45163,176.004813 359.52189,177.148301 C359.84184,174.664825 360.0267,172.138735 360.0267,169.572398 C360.0267,137.322723 333.84768,111.174018 301.56591,111.174018 C289.74909,111.174018 278.77362,114.680241 269.58513,120.695982 C254.61147,78.8675241 214.60113,48.9332349 167.57796,48.9332349 C107.76627,48.9332349 59.26422,97.3716687 59.26422,157.131343 C59.26422,161.392789 59.54151,165.595048 60.02973,169.740488 C39.8397,171.527928 24.00099,188.448235 24.00099,209.087837 C24.00099,218.332807 27.1839,226.813084 32.50929,233.550904 C12.90702,246.676157 0,269.001398 0,294.345163 C0,334.746036 32.78658,367.497614 73.233,367.497614 L154.94823,367.497614 L119.33898,331.928747 C113.34288,325.948518 111.56301,317.011319 114.81228,309.177361 C118.05444,301.350506 125.63844,296.29359 134.1183,296.29359 L140.05515,296.29359 L140.05515,219.379229 C140.05515,213.808572 142.23081,208.566994 146.17686,204.625157 C150.13239,200.671482 155.37246,198.500512 160.95855,198.500512 L242.75673,198.500512 C248.34045,198.500512 253.59,200.671482 257.53842,204.625157 C261.48447,208.557524 263.66013,213.81094 263.66013,219.379229 L263.66013,296.29359 L269.59698,296.29359 C278.07921,296.29359 285.66321,301.352873 288.90537,309.186831 C292.15464,317.006584 290.37477,325.939048 284.37867,331.928747 L248.76942,367.497614 L377.83488,367.497614 C430.9371,367.497614 473.99526,324.494892 473.99526,271.442259 C474,218.387259 430.94184,175.384536 377.83962,175.384536 L377.83962,175.384536 Z" id="Shape"></path>
                    <path d="M277.03641,314.094596 C275.75898,311.005048 272.76093,309.134747 269.60172,309.134747 L250.81473,309.134747 L250.81473,219.376861 C250.81473,217.321898 250.01604,215.266934 248.4471,213.699669 C246.88527,212.130036 244.82811,211.341669 242.76147,211.341669 L160.96329,211.341669 C158.90613,211.341669 156.84897,212.130036 155.27766,213.699669 C153.69687,215.266934 152.91714,217.321898 152.91714,219.376861 L152.91714,309.134747 L134.12067,309.134747 C130.96383,309.134747 127.97289,311.005048 126.68835,314.094596 C125.41092,317.191247 126.20013,320.621711 128.43504,322.851867 L196.17675,390.518892 C197.62956,391.970151 199.64643,392.876892 201.86238,392.876892 C204.08781,392.876892 206.0952,391.970151 207.55512,390.518892 L275.29683,322.851867 C277.53174,320.621711 278.32095,317.191247 277.03641,314.094596 L277.03641,314.094596 Z" id="Shape"></path>
                </g>
            </g>
        </g>
    </g>
</svg>